<?xml version="1.0" standalone="no"?>
<!DOCTYPE svg PUBLIC "-//W3C//DTD SVG 20010904//EN"
 "http://www.w3.org/TR/2001/REC-SVG-20010904/DTD/svg10.dtd">
<svg version="1.0" xmlns="http://www.w3.org/2000/svg"
 width="820.000000pt" height="820.000000pt" viewBox="0 0 820.000000 820.000000"
 preserveAspectRatio="xMidYMid meet">
<metadata>
Created by potrace 1.11, written by Peter Selinger 2001-2013
</metadata>
<g transform="translate(0.000000,820.000000) scale(0.100000,-0.100000)"
fill="#000000" stroke="none">
<path d="M6420 7613 c0 -6 -3 -20 -6 -30 -5 -15 -4 -15 5 -3 6 8 11 10 11 5 0
-6 10 -16 23 -24 21 -13 21 -13 6 5 -9 10 -21 28 -27 39 -6 11 -12 15 -12 8z"/>
<path d="M6888 7585 c2 -14 8 -28 13 -31 12 -7 11 -81 -1 -89 -9 -6 -9 -16 -1
-65 1 -3 14 -5 30 -6 26 -1 28 2 22 20 -5 12 -11 44 -15 72 -6 50 -29 108 -45
118 -5 3 -6 -6 -3 -19z"/>
<path d="M6292 7528 c-5 -8 -6 -22 -1 -33 4 -12 8 -14 8 -6 1 8 8 23 18 33 14
16 14 18 1 18 -9 0 -20 -6 -26 -12z"/>
<path d="M6750 7504 c0 -8 5 -12 10 -9 6 4 8 11 5 16 -9 14 -15 11 -15 -7z"/>
<path d="M6393 7473 c-18 -7 -16 -30 3 -37 23 -9 24 -8 24 13 0 22 -9 30 -27
24z"/>
<path d="M6835 7391 c-26 -15 -31 -25 -36 -72 -4 -36 -7 -44 -9 -24 -1 17 -3
35 -5 40 -1 6 -3 19 -3 30 -2 18 -3 18 -18 4 -19 -19 -21 -73 -6 -112 15 -35
15 -54 2 -62 -5 -3 -10 -2 -10 4 0 7 -8 7 -26 1 -28 -11 -56 -1 -74 28 -11 16
-11 16 -6 0 4 -13 0 -18 -14 -18 -16 0 -20 -7 -20 -35 0 -28 5 -38 24 -47 18
-8 26 -22 31 -52 4 -22 11 -45 15 -51 5 -5 0 -20 -10 -32 -15 -19 -20 -20 -29
-9 -17 20 -61 27 -54 9 3 -8 0 -25 -7 -39 -11 -19 -11 -29 -1 -50 l12 -26 18
21 c11 12 27 32 35 44 l17 22 -7 -24 c-4 -15 -2 -21 4 -17 17 10 40 -4 46 -30
4 -14 11 -22 17 -19 5 4 7 15 4 25 -9 29 -14 83 -7 76 3 -4 7 -17 9 -29 2 -12
10 -27 18 -33 22 -17 18 -31 -14 -55 -27 -20 -28 -22 -13 -40 9 -10 22 -19 29
-19 7 0 13 -5 13 -12 0 -6 9 -1 20 12 17 20 23 22 46 12 37 -17 44 -15 44 14
0 18 -4 25 -14 21 -18 -7 -76 29 -76 46 0 35 27 84 68 123 42 41 96 69 111 59
4 -2 24 10 44 26 33 27 37 36 37 77 0 46 -1 47 -30 47 -24 0 -33 -6 -45 -32
-8 -17 -15 -35 -15 -40 0 -4 -21 -21 -47 -37 -25 -17 -57 -40 -71 -53 -14 -13
-28 -23 -32 -23 -10 0 -50 75 -50 94 0 23 54 48 82 37 17 -6 30 -2 55 18 28
22 33 33 33 66 -1 35 -2 38 -14 23 -21 -28 -24 -22 -22 42 4 78 -8 94 -49 71z
m31 -138 c-3 -3 -13 -2 -23 2 -17 7 -17 8 2 15 19 7 34 -5 21 -17z m-176 -107
c0 -11 -19 -15 -25 -6 -3 5 1 10 9 10 9 0 16 -2 16 -4z"/>
<path d="M6940 7360 c0 -19 3 -21 12 -12 9 9 9 15 0 24 -9 9 -12 7 -12 -12z"/>
<path d="M6570 7354 c0 -30 32 -85 46 -80 8 3 14 -1 14 -11 0 -9 3 -14 6 -11
3 4 3 31 -1 62 -7 53 -9 56 -36 56 -20 0 -29 -5 -29 -16z"/>
<path d="M6950 7290 c0 -5 5 -10 10 -10 6 0 10 5 10 10 0 6 -4 10 -10 10 -5 0
-10 -4 -10 -10z"/>
<path d="M1471 7256 c-17 -21 -26 -86 -12 -86 15 0 31 43 29 75 -3 29 -2 29
-17 11z"/>
<path d="M6429 7254 c-1 -5 -1 -13 0 -17 1 -5 -8 -6 -19 -2 -18 6 -20 2 -20
-37 0 -58 12 -77 35 -55 9 10 11 17 5 17 -6 0 -10 12 -8 28 2 19 13 32 38 44
19 10 27 18 18 18 -9 0 -23 3 -32 6 -9 3 -17 2 -17 -2z"/>
<path d="M1591 7174 c0 -11 3 -14 6 -6 3 7 2 16 -1 19 -3 4 -6 -2 -5 -13z"/>
<path d="M1643 7163 c-7 -2 -13 -8 -13 -13 0 -12 33 -5 38 8 4 12 -4 14 -25 5z"/>
<path d="M1797 7154 c-15 -15 -6 -32 13 -27 12 3 19 10 17 16 -4 14 -21 19
-30 11z"/>
<path d="M6487 7086 c-4 -10 -5 -21 -2 -24 9 -9 17 6 13 25 -3 17 -4 17 -11
-1z"/>
<path d="M6595 7070 c3 -5 8 -10 11 -10 2 0 4 5 4 10 0 6 -5 10 -11 10 -5 0
-7 -4 -4 -10z"/>
<path d="M1539 6957 c-17 -13 -21 -60 -4 -53 5 2 9 9 7 16 -2 8 3 10 13 7 10
-5 15 0 15 13 0 25 -11 31 -31 17z"/>
<path d="M1752 6924 c9 -9 21 -13 27 -9 16 10 3 25 -22 25 -20 0 -20 -1 -5
-16z"/>
<path d="M6640 6903 c0 -11 5 -11 20 -3 11 6 20 13 20 15 0 2 -9 3 -20 2 -11
-1 -20 -7 -20 -14z"/>
<path d="M1538 6893 c-28 -17 -45 -55 -28 -61 6 -2 7 -8 4 -13 -3 -6 0 -17 8
-26 9 -12 9 -15 1 -9 -10 5 -11 -1 -6 -26 6 -30 5 -32 -10 -19 -26 21 -20 0 9
-34 16 -19 21 -22 15 -9 -7 15 -6 27 5 42 8 12 12 27 9 32 -10 17 7 11 20 -7
10 -13 12 -7 9 35 -1 29 2 52 7 52 5 0 9 7 9 15 0 8 -4 15 -9 15 -5 0 -11 7
-13 14 -3 13 -7 13 -30 -1z"/>
<path d="M1800 6869 c0 -13 5 -31 10 -39 7 -11 8 -5 4 20 -8 43 -14 51 -14 19z"/>
<path d="M1465 6821 c-8 -25 1 -42 19 -35 15 6 14 46 -1 51 -6 2 -14 -5 -18
-16z"/>
<path d="M6633 6824 c-3 -8 -1 -20 6 -27 8 -8 11 -7 11 6 0 9 5 17 10 17 6 0
10 5 10 10 0 16 -30 11 -37 -6z"/>
<path d="M6120 6792 c-22 -19 -30 -31 -22 -36 7 -4 12 -2 12 4 0 8 9 10 25 6
23 -6 25 -3 25 24 0 16 -1 30 -3 30 -1 0 -18 -13 -37 -28z"/>
<path d="M1438 6735 c-20 -26 -24 -50 -8 -40 6 3 10 0 10 -7 1 -7 7 -2 15 12
l15 25 6 -22 c3 -13 11 -23 16 -23 13 0 -1 41 -21 62 -15 16 -17 15 -33 -7z"/>
<path d="M6815 6750 c-19 -8 -19 -9 3 -9 12 -1 22 -6 22 -12 0 -6 7 -9 15 -6
8 4 17 2 20 -4 4 -5 11 -7 16 -4 5 4 9 1 9 -4 0 -6 6 -11 13 -11 6 0 -3 14
-21 30 -34 31 -44 34 -77 20z"/>
<path d="M1565 6720 c3 -5 11 -10 16 -10 6 0 7 5 4 10 -3 6 -11 10 -16 10 -6
0 -7 -4 -4 -10z"/>
<path d="M6656 6708 c4 -13 12 -26 18 -30 23 -16 27 -7 9 22 -20 35 -37 40
-27 8z"/>
<path d="M1576 6684 c-18 -18 -21 -40 -6 -49 6 -3 10 4 10 17 0 13 5 29 12 36
7 7 9 12 6 12 -4 0 -14 -7 -22 -16z"/>
<path d="M1170 6645 c0 -8 5 -15 10 -15 6 0 10 7 10 15 0 8 -4 15 -10 15 -5 0
-10 -7 -10 -15z"/>
<path d="M6085 6590 c8 -76 -2 -173 -16 -164 -5 3 -9 1 -9 -4 0 -16 12 -21 30
-12 14 7 18 28 23 106 6 96 -2 144 -24 144 -8 0 -9 -21 -4 -70z"/>
<path d="M1411 6603 c-34 -38 -47 -64 -55 -109 -8 -40 -26 -56 -59 -51 -24 3
-35 -4 -70 -45 -23 -26 -50 -48 -59 -48 -9 0 -29 -5 -43 -12 -23 -11 -25 -16
-25 -85 0 -60 3 -73 16 -73 12 0 14 -7 9 -30 -7 -33 2 -90 14 -90 4 0 13 17
19 39 7 21 18 44 26 50 23 19 27 -13 8 -64 -13 -37 -14 -49 -4 -65 16 -25 15
-30 -3 -30 -7 0 -19 8 -24 18 -6 9 -11 12 -11 6 0 -6 7 -18 17 -25 15 -13 13
-15 -15 -19 l-31 -5 62 -50 c34 -28 107 -84 162 -124 55 -41 113 -92 128 -113
30 -43 46 -51 160 -79 95 -24 119 -37 111 -61 -3 -12 1 -20 13 -24 42 -13 64
-32 85 -74 15 -30 30 -45 42 -45 22 0 35 -25 14 -25 -7 -1 0 -8 17 -17 16 -9
38 -27 48 -39 10 -13 25 -24 33 -24 8 0 13 -4 10 -9 -13 -21 30 -36 107 -37
l80 -2 86 -76 c99 -88 578 -476 587 -476 4 0 4 11 2 24 -5 23 -4 23 28 10 18
-8 35 -14 36 -14 2 0 2 52 0 116 -4 137 25 347 64 462 13 41 23 76 21 79 -3 2
-15 1 -28 -2 -35 -9 -94 -65 -126 -120 -39 -66 -58 -71 -50 -15 5 38 2 48 -25
81 -25 31 -34 36 -45 27 -11 -8 -12 -7 -7 6 4 11 -7 30 -37 60 -143 144 -212
223 -204 236 3 4 -12 6 -33 3 -29 -4 -41 -1 -56 16 -17 18 -18 24 -6 45 13 25
6 51 -11 40 -5 -3 -7 -10 -4 -15 4 -5 -2 -12 -12 -16 -25 -9 -55 -49 -71 -92
-13 -37 -8 -111 9 -122 5 -3 5 -19 0 -36 -11 -38 10 -66 71 -93 22 -10 35 -20
30 -24 -13 -8 -62 14 -62 27 0 5 -7 6 -16 3 -8 -3 -12 -2 -9 3 3 5 -5 11 -17
13 -18 2 -23 9 -21 31 1 20 -2 27 -11 24 -10 -4 -16 7 -20 33 -5 33 -13 43
-51 66 -25 14 -50 35 -56 46 -6 11 -17 17 -24 14 -7 -2 -19 2 -25 10 -7 8 -18
14 -25 14 -6 0 -20 9 -30 20 -10 11 -22 17 -27 14 -5 -3 -20 -3 -34 0 -25 7
-33 31 -11 39 12 5 0 19 -61 71 l-22 20 5 -75 c5 -69 4 -72 -9 -44 -8 17 -28
43 -45 59 -35 33 -38 51 -16 76 20 23 12 39 -35 72 -22 15 -40 35 -40 43 0 19
8 19 54 0 35 -15 37 -15 27 2 -5 10 -29 39 -53 65 -53 59 -81 58 -96 -5 -10
-39 -9 -43 26 -86 60 -74 68 -90 19 -36 -26 28 -46 46 -47 40 0 -5 11 -39 24
-75 38 -103 56 -169 56 -209 l0 -36 -14 26 c-7 14 -16 47 -20 73 -9 56 -40
151 -61 183 -9 13 -38 34 -65 48 -64 32 -64 54 -1 45 9 -1 7 7 -7 28 -30 41
-49 55 -57 42 -3 -6 -11 -8 -16 -4 -6 3 -6 10 -1 17 5 7 12 25 16 40 4 19 12
27 21 24 18 -8 33 12 37 48 2 24 -1 30 -17 30 -13 0 -21 8 -23 24 -2 14 0 21
7 17 12 -8 33 23 57 82 21 53 13 63 -20 26 -30 -34 -31 -30 -16 84 7 54 6 78
-3 92 -15 25 -69 52 -78 39 -3 -5 -13 -7 -23 -3 -13 5 -17 16 -14 47 2 22 -2
42 -8 44 -5 2 -25 -13 -43 -34z m102 -309 c23 -9 21 -19 -8 -42 -14 -11 -25
-25 -25 -31 0 -6 -6 -11 -14 -11 -37 0 -126 -130 -126 -184 0 -9 -4 -16 -9
-16 -13 0 -21 26 -21 69 0 34 9 48 80 122 44 46 80 90 80 97 0 8 6 11 13 8 6
-3 20 -9 30 -12z m15 -181 c-14 -17 -35 -16 -41 1 -3 8 4 21 16 29 20 13 23
13 28 -2 4 -9 2 -22 -3 -28z m-317 -30 c-12 -20 -14 -14 -5 12 4 9 9 14 11 11
3 -2 0 -13 -6 -23z m429 -311 c0 -8 -1 -13 -3 -11 -1 2 -9 12 -16 22 -12 15
-12 17 3 11 9 -3 16 -13 16 -22z m758 -153 c-2 -6 -8 -10 -13 -10 -5 0 -11 4
-13 10 -2 6 4 11 13 11 9 0 15 -5 13 -11z m-224 -101 c-4 -6 -10 -5 -15 3 -14
22 -10 33 6 19 8 -7 12 -17 9 -22z m543 -164 c-3 -3 -12 -4 -19 -1 -8 3 -5 6
6 6 11 1 17 -2 13 -5z m-667 -74 c0 -22 -1 -23 -24 -14 -18 7 -10 34 10 34 8
0 14 -9 14 -20z m805 -110 c-19 -21 -45 -27 -45 -10 0 11 30 29 49 30 11 0 10
-5 -4 -20z m-5 -58 c-8 -3 -21 -9 -27 -15 -9 -7 -13 -5 -13 6 0 9 8 17 18 20
21 4 41 -5 22 -11z m14 -35 c-7 -20 -42 -38 -50 -26 -3 6 -4 11 -3 12 2 1 13
7 24 14 26 16 35 16 29 0z m10 -62 c-4 -8 -16 -15 -28 -15 -14 0 -17 -3 -9 -8
10 -6 10 -15 1 -40 -10 -26 -10 -37 0 -53 17 -26 10 -34 -17 -19 -23 12 -28
35 -10 45 6 4 8 14 4 22 -3 9 -3 31 1 49 5 29 10 34 35 34 21 0 27 -4 23 -15z
m6 -227 c0 -11 -18 -10 -25 2 -3 6 -11 10 -17 10 -7 0 -6 -6 2 -15 7 -8 8 -15
3 -15 -16 0 -33 23 -33 47 l0 22 35 -22 c19 -12 34 -25 35 -29z"/>
<path d="M1366 6611 c-4 -5 3 -7 14 -4 23 6 26 13 6 13 -8 0 -17 -4 -20 -9z"/>
<path d="M1550 6610 c0 -5 5 -10 11 -10 5 0 7 5 4 10 -3 6 -8 10 -11 10 -2 0
-4 -4 -4 -10z"/>
<path d="M1201 6538 c-1 -32 2 -38 19 -38 12 0 20 7 20 17 0 9 -3 13 -7 9 -4
-3 -12 6 -19 21 l-12 28 -1 -37z"/>
<path d="M1345 6550 c3 -5 8 -10 11 -10 2 0 4 5 4 10 0 6 -5 10 -11 10 -5 0
-7 -4 -4 -10z"/>
<path d="M1314 6531 c-1 -9 -5 -24 -9 -35 -6 -14 -4 -17 11 -14 23 4 32 53 12
61 -8 3 -14 -2 -14 -12z"/>
<path d="M6885 6509 c-4 -6 -5 -12 -2 -15 2 -3 7 2 10 11 7 17 1 20 -8 4z"/>
<path d="M2043 6468 c2 -34 6 -43 22 -46 19 -3 19 -2 2 8 -17 11 -17 12 2 30
16 13 18 20 9 27 -34 26 -38 25 -35 -19z"/>
<path d="M1174 6453 c4 -7 2 -13 -3 -13 -6 0 -11 -15 -10 -32 l1 -33 14 34
c12 26 13 36 3 45 -9 8 -10 8 -5 -1z"/>
<path d="M1647 6413 c-4 -3 -7 -11 -7 -17 0 -6 5 -5 12 2 6 6 9 14 7 17 -3 3
-9 2 -12 -2z"/>
<path d="M1735 6378 c-9 -22 -2 -63 10 -63 14 0 18 41 6 62 -9 17 -10 17 -16
1z"/>
<path d="M6750 6358 c0 -39 20 -78 41 -78 15 0 16 5 9 30 -10 36 -10 34 -10
59 0 14 -6 19 -20 18 -15 -1 -20 -8 -20 -29z"/>
<path d="M2071 6367 c-18 -23 -5 -107 18 -107 9 0 22 14 30 31 13 29 12 33 -6
48 -11 9 -22 22 -25 30 -3 11 -6 10 -17 -2z m34 -67 c-3 -5 -11 -10 -16 -10
-6 0 -7 5 -4 10 3 6 11 10 16 10 6 0 7 -4 4 -10z"/>
<path d="M6310 6260 c0 -5 5 -10 10 -10 6 0 10 5 10 10 0 6 -4 10 -10 10 -5 0
-10 -4 -10 -10z"/>
<path d="M6083 6243 c-3 -10 -8 -22 -10 -28 -3 -5 3 -1 11 9 16 20 21 36 11
36 -3 0 -8 -8 -12 -17z"/>
<path d="M2080 6243 c0 -11 52 -54 58 -48 4 3 1 10 -6 14 -7 4 -10 14 -7 22 4
10 -3 14 -20 15 -14 1 -25 0 -25 -3z"/>
<path d="M6296 6243 c-2 -3 -2 -11 0 -17 3 -7 -2 -19 -11 -26 -22 -18 -17 -80
7 -80 11 0 47 77 48 101 0 16 -33 32 -44 22z"/>
<path d="M6905 6230 c-3 -5 3 -10 15 -10 12 0 18 5 15 10 -3 6 -10 10 -15 10
-5 0 -12 -4 -15 -10z"/>
<path d="M1857 6210 c3 -11 7 -20 9 -20 2 0 4 9 4 20 0 11 -4 20 -9 20 -5 0
-7 -9 -4 -20z"/>
<path d="M7020 6190 c0 -22 5 -30 18 -30 9 0 32 -9 50 -20 42 -26 62 -26 55
-1 -3 13 -13 19 -27 18 -11 -1 -22 3 -24 8 -2 6 -14 16 -28 23 -13 7 -24 17
-24 22 0 6 -4 10 -10 10 -5 0 -10 -13 -10 -30z"/>
<path d="M6068 6166 c-11 -15 -13 -27 -7 -37 7 -11 9 -10 9 7 0 11 5 25 12 32
6 6 10 14 7 16 -2 2 -11 -6 -21 -18z"/>
<path d="M6750 6175 c0 -18 -12 -19 -28 -3 -9 9 -12 9 -12 -1 0 -7 -6 -11 -15
-8 -8 4 -17 2 -21 -4 -4 -6 -11 -6 -20 2 -8 6 -14 7 -14 2 0 -5 -13 -8 -29 -5
-26 4 -29 2 -24 -18 4 -16 0 -23 -16 -27 -12 -3 -23 -16 -26 -29 -3 -13 -8
-36 -11 -51 l-6 -28 -12 29 -12 30 -13 -58 c-11 -48 -11 -63 0 -82 13 -25 31
-33 28 -11 -1 6 2 27 6 45 l8 33 19 -21 c11 -11 23 -18 29 -15 5 4 9 1 9 -4 0
-6 -7 -11 -15 -11 -8 0 -15 -4 -15 -10 0 -5 7 -10 16 -10 8 0 31 -16 50 -37
38 -40 38 -62 2 -98 -21 -21 -21 -19 1 27 19 37 8 58 -28 58 -16 0 -33 5 -36
10 -8 13 -45 -6 -45 -24 0 -19 -25 -37 -42 -31 -41 16 -48 165 -13 249 8 19
15 43 15 53 0 15 -3 14 -19 -6 -11 -14 -21 -50 -25 -84 -7 -66 -27 -98 -56
-90 -12 3 -20 -1 -23 -14 -4 -16 -6 -15 -12 6 -7 22 -9 23 -21 7 -10 -14 -17
-15 -33 -7 -27 15 -31 14 -31 -6 0 -35 -18 3 -29 62 -15 76 -16 84 -6 119 7
26 6 27 -14 17 -14 -8 -21 -8 -21 -1 0 5 5 10 10 10 6 0 10 4 10 10 0 5 -7 7
-15 4 -8 -4 -15 -15 -15 -26 0 -14 5 -18 15 -14 20 7 19 -8 -1 -29 -26 -25
-46 -1 -42 51 2 33 0 40 -9 32 -7 -6 -13 -16 -13 -23 0 -6 -10 -17 -22 -24
-13 -6 -15 -9 -6 -7 21 6 42 -18 34 -39 -8 -22 -25 -18 -19 5 4 15 0 20 -16
20 -28 0 -27 -21 4 -66 14 -20 25 -42 25 -48 0 -15 -20 -44 -20 -30 0 6 -13
28 -30 48 l-29 38 -14 -35 c-8 -18 -18 -43 -21 -54 -4 -12 -13 -24 -22 -27
-10 -4 -13 -15 -9 -38 10 -56 15 -67 31 -61 7 3 14 0 14 -6 0 -6 7 -11 15 -11
9 0 15 -6 14 -12 -5 -43 5 -72 37 -108 22 -25 43 -62 55 -102 17 -56 17 -64 3
-78 -13 -13 -16 -13 -24 0 -5 8 -13 31 -16 50 -12 62 -43 118 -97 172 -28 29
-70 73 -91 98 -35 38 -44 44 -75 42 -20 -2 -43 -5 -51 -8 -26 -7 -81 -114 -59
-114 5 0 7 -18 4 -39 l-5 -39 36 8 c20 5 42 14 48 20 8 8 7 10 -6 5 -11 -4
-18 0 -23 14 -8 26 1 41 26 41 14 0 19 -7 19 -29 0 -25 3 -28 22 -23 22 5 22
5 7 -18 -9 -13 -32 -32 -52 -43 -22 -11 -37 -26 -37 -37 0 -11 18 -54 40 -97
22 -42 39 -81 37 -86 -7 -23 -106 98 -135 166 l-12 28 -55 -63 c-33 -38 -52
-69 -49 -78 4 -11 2 -12 -7 -3 -9 9 -23 -2 -61 -45 -28 -33 -46 -62 -43 -70 4
-12 3 -13 -10 -2 -10 8 -15 9 -15 2 0 -6 -18 -28 -40 -49 l-40 -38 0 -100 c1
-109 5 -194 11 -210 2 -5 -3 -21 -11 -35 -7 -14 -13 -40 -11 -58 2 -22 -2 -34
-13 -38 -9 -3 -13 -10 -10 -15 3 -5 1 -9 -5 -9 -14 0 -23 18 -11 22 15 5 -1
42 -20 47 -24 5 -44 9 -52 10 -5 1 -8 6 -8 11 0 10 41 7 85 -7 18 -5 19 -4 5
12 -14 17 -13 18 3 12 20 -7 22 3 5 22 -10 11 -10 13 0 7 20 -12 14 36 -9 64
-11 14 -18 19 -14 13 3 -7 3 -13 0 -13 -10 0 -44 43 -45 56 0 5 -15 25 -34 43
-27 26 -32 36 -23 46 14 15 31 9 21 -7 -4 -6 -3 -9 2 -5 15 9 43 -17 58 -55 8
-19 21 -40 29 -47 12 -9 16 -7 21 14 5 20 0 35 -24 63 -31 37 -41 63 -17 43 8
-6 17 -7 21 -3 4 4 6 1 4 -7 -1 -7 3 -16 10 -18 6 -3 12 2 12 9 0 19 -44 60
-55 51 -4 -5 -5 -2 0 6 5 9 2 19 -10 27 -23 17 -27 58 -9 92 8 15 14 23 14 17
0 -5 7 3 15 19 14 27 13 32 -11 83 -15 29 -29 51 -32 49 -3 -3 1 -13 9 -22 12
-15 11 -16 -11 -9 -26 8 -49 32 -50 51 0 14 -30 40 -30 27 0 -5 6 -16 12 -24
7 -7 4 -6 -7 3 -15 15 -17 20 -6 30 10 11 16 9 31 -10 13 -15 21 -19 26 -11 4
7 0 17 -8 23 -58 43 -92 75 -104 98 -8 15 -23 30 -35 33 -12 4 -37 18 -58 32
-128 88 -452 214 -598 234 -35 4 -71 13 -81 18 -70 38 -442 39 -572 2 -41 -12
-93 -24 -114 -26 -36 -4 -55 -17 -56 -37 0 -11 44 -10 56 1 5 5 20 12 34 15
24 7 24 6 -2 -9 -16 -9 -28 -21 -28 -26 0 -7 -11 -9 -25 -7 -20 4 -25 1 -26
-16 0 -11 -3 -15 -6 -9 -3 10 -13 9 -40 -2 -19 -8 -39 -12 -44 -9 -19 12 -7
30 31 47 69 29 44 37 -39 11 -84 -26 -207 -80 -217 -95 -3 -5 -16 -9 -30 -9
-13 0 -23 -5 -21 -12 1 -7 -7 -12 -17 -13 -22 0 -56 -53 -48 -74 3 -8 1 -12
-4 -9 -5 4 -18 0 -29 -8 -10 -8 -13 -14 -7 -14 7 0 12 -7 12 -15 0 -8 5 -15
10 -15 6 0 10 5 10 11 0 6 7 9 14 6 10 -4 13 -1 9 9 -3 9 0 14 7 12 14 -3 50
52 42 66 -3 5 0 6 6 2 7 -4 12 -2 12 3 0 15 79 66 88 57 4 -4 7 -13 7 -19 0
-22 30 -12 33 11 2 12 10 22 18 22 8 0 24 9 35 19 24 22 63 35 52 18 -4 -7
-15 -18 -25 -25 -25 -18 -22 -32 7 -32 14 0 37 0 51 0 15 0 33 5 40 11 8 6 21
9 29 5 10 -4 14 -2 9 5 -4 7 -1 10 7 7 16 -6 115 26 135 43 17 14 18 33 2 22
-7 -4 -28 -13 -46 -19 -26 -9 -31 -9 -22 0 5 7 6 17 2 21 -4 5 -1 5 6 1 8 -5
21 0 33 13 17 18 30 21 76 19 42 -2 57 -7 60 -19 4 -15 8 -15 30 -4 13 7 33
10 44 8 21 -6 45 -41 35 -51 -3 -3 -6 0 -6 6 0 18 -28 14 -39 -5 -6 -10 -11
-13 -11 -6 0 7 -13 10 -32 9 -49 -4 -50 -5 -42 -18 5 -8 2 -9 -11 -4 -16 6
-16 4 -4 -10 11 -14 11 -18 -6 -30 -10 -8 -24 -14 -29 -13 -6 0 -5 3 2 6 6 2
12 9 12 14 0 6 -5 7 -11 4 -5 -4 -19 1 -30 11 -17 15 -24 16 -39 6 -11 -7 -28
-12 -37 -12 -10 0 -27 -8 -38 -16 -19 -15 -18 -16 13 -9 21 4 32 3 32 -5 0 -6
4 -8 10 -5 5 3 22 -1 38 -9 16 -8 32 -12 36 -9 3 4 12 -2 20 -12 11 -16 17
-16 46 -7 42 15 83 16 74 1 -3 -6 -17 -8 -30 -5 -18 5 -22 3 -18 -9 4 -8 12
-15 20 -15 8 0 14 -6 14 -14 0 -8 7 -17 16 -20 12 -5 15 -2 9 11 -12 32 -10
38 10 36 11 -1 14 0 8 3 -26 11 -12 22 31 26 38 3 46 0 50 -17 3 -11 1 -22 -4
-23 -6 -2 -15 -13 -21 -24 -8 -15 -7 -22 6 -32 14 -10 10 -13 -30 -15 -49 -2
-88 6 -81 17 2 4 -2 16 -10 27 -8 10 -14 14 -14 9 0 -6 5 -15 12 -22 9 -9 9
-12 0 -12 -6 0 -16 8 -21 18 -6 9 -11 12 -11 6 0 -14 -40 -26 -40 -12 0 5 -5
6 -11 3 -6 -4 -8 -13 -5 -20 3 -8 -6 -15 -22 -18 -15 -3 -28 -1 -30 4 -2 5 -8
9 -13 9 -6 0 -8 -4 -5 -9 9 -13 -55 -20 -138 -15 -71 5 -79 4 -107 -20 -17
-14 -43 -28 -57 -32 -15 -3 -56 -17 -92 -31 -36 -14 -94 -36 -130 -50 -35 -13
-74 -32 -85 -43 -12 -11 -31 -20 -42 -20 -13 0 -29 -13 -42 -36 -25 -42 -70
-190 -77 -254 -2 -25 -11 -88 -19 -140 -8 -52 -14 -122 -14 -155 0 -33 -3 -96
-6 -140 -4 -44 -8 -111 -9 -148 -2 -73 -11 -87 -55 -87 -20 0 -21 -2 -11 -15
14 -17 0 -21 -17 -4 -18 18 -43 -18 -42 -59 2 -70 13 -97 37 -96 15 0 19 -3
12 -11 -6 -7 -5 -16 3 -24 6 -6 13 -31 14 -54 1 -23 7 -60 13 -82 6 -22 10
-49 9 -60 -5 -43 1 -86 11 -80 5 3 10 1 10 -4 0 -6 -4 -11 -10 -11 -5 0 -7 -6
-4 -14 3 -7 -2 -16 -10 -19 -9 -4 -13 -13 -10 -21 3 -8 0 -17 -5 -21 -6 -3 -9
-10 -6 -15 3 -4 -2 -21 -10 -36 -13 -25 -21 -20 -16 9 4 26 -56 -27 -77 -69
-13 -24 -7 -95 8 -104 11 -7 7 -39 -9 -67 -6 -12 -6 -25 0 -34 5 -7 9 -18 9
-24 0 -5 -5 -3 -10 5 -8 12 -10 11 -10 -7 0 -23 33 -48 50 -38 18 11 11 -5
-14 -32 -14 -15 -22 -32 -18 -41 3 -10 1 -13 -6 -8 -7 4 -12 2 -12 -3 0 -6 6
-11 13 -11 8 0 7 -4 -3 -10 -13 -8 -13 -12 -1 -32 10 -17 11 -23 2 -26 -22 -7
43 -35 84 -37 22 0 51 -5 65 -9 19 -7 13 3 -30 48 -57 60 -66 67 -52 39 10
-19 6 -43 -7 -43 -23 0 -13 201 10 216 5 3 9 -5 9 -18 0 -13 9 -36 20 -53 l19
-29 15 35 c20 49 39 63 65 50 28 -15 36 -14 21 4 -10 11 -10 18 -1 29 9 11 9
15 0 18 -9 3 -9 9 -1 24 8 14 12 15 12 4 1 -20 40 90 40 113 0 10 -17 44 -37
75 -31 48 -38 68 -41 125 -3 41 0 67 6 67 5 0 13 -7 16 -16 5 -14 9 -14 22 -3
12 10 14 25 10 63 -10 93 -12 176 -4 176 4 0 8 11 8 24 0 13 7 29 15 36 17 14
19 83 4 115 -7 14 -8 5 -5 -34 5 -46 2 -56 -17 -72 -30 -25 -47 -24 -90 5 -24
17 -37 21 -40 13 -3 -7 -4 -2 -4 10 1 12 5 19 11 16 5 -4 6 -1 1 8 -15 23 -13
52 5 84 13 23 25 31 53 33 33 3 36 6 42 44 4 23 7 72 7 110 l-1 68 67 0 c37
-1 112 -5 167 -10 55 -5 181 -14 279 -20 121 -7 189 -15 210 -25 22 -11 32
-12 37 -4 4 8 24 9 60 5 30 -4 90 -7 134 -7 95 0 145 -7 145 -22 0 -5 8 -16
18 -23 16 -12 15 -13 -5 -14 -13 0 -23 5 -23 10 0 6 -8 10 -17 10 -15 0 -15
-2 -4 -9 9 -6 11 -15 6 -27 -8 -18 -8 -18 -12 -1 -3 10 -12 17 -21 15 -11 -2
-16 -16 -17 -50 -2 -45 6 -61 20 -38 12 19 22 10 17 -15 -2 -14 -9 -25 -16
-25 -8 0 -8 -2 1 -8 6 -4 15 -20 19 -36 6 -26 5 -28 -12 -21 -10 4 -31 7 -46
6 -21 -1 -26 2 -22 14 4 8 1 15 -5 15 -6 0 -11 -5 -11 -11 0 -6 -7 -9 -15 -5
-8 3 -15 1 -15 -5 0 -6 -4 -7 -10 -4 -5 3 -10 -2 -10 -11 0 -16 -1 -16 -14 2
-11 14 -11 21 -3 26 9 6 9 8 -1 8 -7 0 -20 -9 -29 -20 -24 -28 -35 -25 -21 5
10 21 8 28 -12 45 -29 25 -56 10 -39 -22 8 -15 8 -19 0 -14 -6 4 -11 2 -11 -4
0 -7 -6 -10 -12 -7 -7 2 -12 12 -10 22 3 15 0 14 -19 -4 -13 -12 -30 -19 -39
-15 -8 3 -31 8 -50 10 -19 3 -37 9 -40 15 -5 6 -16 6 -34 -1 -15 -5 -48 -10
-73 -10 -25 0 -61 -8 -81 -17 l-35 -17 26 -9 c22 -7 25 -12 17 -26 -7 -14 -26
-20 -77 -23 -37 -3 -93 -15 -123 -26 -30 -11 -79 -28 -107 -38 -40 -14 -51
-23 -47 -34 4 -8 10 -31 15 -50 19 -83 57 -197 74 -223 10 -15 41 -43 69 -62
42 -28 65 -35 121 -40 57 -5 66 -4 50 6 -11 7 -22 13 -24 15 -2 2 7 15 20 28
26 26 57 35 77 22 8 -4 24 0 40 11 15 10 36 21 47 25 19 6 19 6 -2 7 -17 1
-21 7 -20 36 1 19 5 35 11 35 5 0 7 -3 3 -6 -9 -9 19 -34 40 -35 10 0 13 -3 6
-6 -7 -2 -13 -9 -13 -14 0 -6 8 -6 19 1 11 5 30 10 43 10 17 0 24 6 25 22 2
18 0 20 -7 8 -5 -8 -10 -10 -10 -5 0 6 -5 3 -10 -5 -8 -12 -13 -11 -34 9 -15
14 -30 20 -38 16 -7 -5 -6 -1 3 9 18 19 53 11 45 -10 -7 -18 -3 -18 39 6 20
11 33 15 29 9 -5 -8 -3 -9 7 -3 30 18 69 58 69 70 0 7 5 14 12 16 6 2 11 20
10 40 -2 44 20 56 48 28 23 -23 58 -22 80 2 17 17 68 27 86 15 6 -3 10 -27 9
-52 -2 -25 1 -48 6 -51 12 -7 11 -81 -1 -89 -12 -7 -8 -53 8 -82 10 -19 9 -24
-7 -33 -25 -13 -44 -13 -36 1 11 17 -64 -1 -100 -25 -18 -11 -38 -34 -45 -51
-40 -92 -60 -154 -60 -185 -1 -28 -3 -32 -11 -18 -5 10 -8 36 -5 58 3 28 1 40
-7 39 -14 -3 -41 7 -81 27 -24 12 -31 12 -38 2 -6 -10 -12 -9 -23 6 -14 18
-15 18 -15 2 0 -12 -6 -16 -22 -14 -13 2 -22 9 -21 15 2 8 -4 10 -14 6 -12 -5
-15 -2 -11 9 4 9 0 15 -8 15 -8 0 -14 -7 -14 -16 0 -13 -2 -13 -9 -2 -7 10 -9
11 -13 0 -3 -8 -30 -13 -84 -15 -43 -2 -92 -6 -108 -10 -19 -5 -27 -3 -22 4
10 17 -26 7 -39 -11 -7 -9 -15 -14 -18 -10 -4 3 -7 1 -7 -6 0 -7 6 -11 14 -8
17 7 50 -27 43 -45 -2 -7 0 -23 4 -35 8 -21 5 -23 -24 -24 -27 0 -29 -2 -12
-9 29 -12 2 -12 -31 0 l-27 11 7 -58 c8 -68 49 -163 70 -163 9 0 29 -38 56
-107 51 -135 73 -183 83 -183 4 0 7 -6 7 -14 0 -25 48 -73 80 -79 33 -7 92
-65 85 -84 -2 -7 2 -13 10 -13 17 0 20 -26 5 -35 -20 -12 -10 -22 21 -20 19 1
33 -4 36 -12 3 -8 16 -18 29 -23 16 -7 21 -14 17 -29 -3 -12 -1 -21 6 -21 6 0
11 7 11 15 0 17 23 20 51 5 26 -14 26 -60 -1 -67 -11 -3 -17 -10 -14 -15 3 -5
17 -7 31 -3 17 4 32 0 44 -11 10 -9 25 -14 34 -11 8 4 15 2 15 -3 0 -6 -10
-10 -22 -10 -13 0 -30 -4 -38 -10 -9 -6 -17 -5 -22 3 -4 6 -10 8 -14 4 -13
-12 48 -67 85 -77 52 -14 91 -12 97 5 8 21 24 19 25 -2 0 -11 3 -13 6 -5 6 14
53 17 53 2 0 -5 6 -7 14 -4 9 3 18 -6 25 -27 8 -23 15 -30 28 -25 9 4 20 1 25
-6 8 -10 11 -10 15 0 8 20 26 14 20 -8 -3 -12 1 -23 10 -28 12 -7 9 -12 -14
-23 -29 -14 -44 -49 -21 -49 9 0 9 -3 0 -12 -10 -10 -15 -10 -22 2 -6 9 -10
10 -10 3 0 -14 40 -38 58 -35 6 2 12 -5 13 -15 0 -10 2 -13 5 -8 4 10 74 12
90 2 5 -3 22 -3 37 0 30 6 55 39 35 45 -6 2 -8 10 -4 17 6 9 12 7 26 -9 27
-31 52 -27 44 8 -3 15 -2 22 3 16 21 -27 90 3 154 67 9 9 24 21 33 26 65 36
306 314 306 353 0 19 51 120 61 120 5 0 9 -5 9 -10 0 -7 6 -8 17 -2 22 13 66
96 53 100 -5 2 -10 16 -10 31 0 15 -9 36 -20 46 -11 10 -20 24 -20 32 0 8 -4
11 -10 8 -6 -4 -9 10 -7 34 1 23 5 41 10 41 4 0 7 6 7 14 0 19 14 28 34 20 11
-4 14 -13 10 -26 -3 -10 -1 -25 5 -32 6 -8 14 -49 18 -93 4 -60 2 -86 -10
-108 -16 -32 -20 -85 -6 -85 4 0 5 -25 2 -55 -5 -43 -2 -60 13 -82 l18 -28 11
49 c12 56 35 74 36 29 0 -15 4 -37 8 -47 7 -19 8 -19 14 -1 11 28 16 16 37
-91 l19 -99 -22 -44 c-12 -24 -38 -57 -57 -73 l-35 -29 30 6 c17 3 40 8 51 11
17 3 23 -2 27 -25 4 -16 2 -44 -3 -61 -15 -53 -45 -78 -145 -123 -36 -15 -37
-17 -9 -12 17 3 63 9 103 14 71 7 73 7 82 -16 5 -14 9 -34 9 -46 0 -12 4 -37
9 -55 5 -17 6 -32 1 -32 -4 0 -10 -8 -13 -19 -3 -14 -11 -17 -31 -14 -28 6
-37 -13 -11 -23 23 -9 19 -51 -6 -59 -25 -8 -31 -3 -33 26 -2 38 -23 32 -51
-15 -14 -24 -32 -50 -40 -56 -17 -14 -20 -111 -6 -172 8 -34 6 -42 -26 -83
-18 -25 -28 -45 -21 -45 6 0 -2 -15 -19 -33 -18 -19 -37 -55 -47 -89 l-17 -58
-53 0 c-34 0 -56 -5 -59 -12 -4 -10 -6 -10 -6 0 -2 24 -19 11 -26 -20 -7 -33
-7 -33 -15 -8 -4 14 -9 18 -10 10 -1 -11 -4 -9 -10 5 -5 11 -9 15 -9 8 -1 -16
-81 -5 -103 15 -10 8 -24 12 -33 9 -8 -4 -15 -2 -15 3 0 6 -10 10 -22 10 -13
0 -36 9 -53 20 -41 27 -59 27 -44 -1 8 -15 8 -19 0 -15 -6 4 -19 2 -28 -3 -13
-7 -14 -10 -4 -11 8 0 11 -3 8 -7 -4 -3 -2 -12 4 -19 8 -10 7 -15 -4 -20 -13
-5 -13 -9 0 -35 8 -17 23 -33 32 -37 9 -3 19 -9 22 -14 8 -13 79 -12 129 2 42
11 180 8 266 -6 31 -6 31 -7 23 -42 -5 -21 -9 -51 -9 -68 0 -17 -10 -44 -22
-60 -13 -15 -16 -24 -9 -19 11 6 13 3 7 -16 -33 -105 -33 -364 -1 -524 25
-126 29 -93 6 60 -11 81 -16 154 -13 195 l6 65 12 -50 13 -50 -5 65 c-3 36 -7
83 -10 105 l-5 40 34 -33 34 -33 7 -197 c9 -257 24 -315 25 -95 1 89 5 164 10
167 4 3 3 24 -3 46 -8 33 -8 43 3 49 9 6 10 11 2 15 -6 4 -11 35 -11 72 0 57
2 64 20 64 25 0 27 20 3 21 -12 0 -13 2 -5 6 33 13 107 -111 91 -153 -11 -28
-11 -98 1 -128 5 -14 12 -90 16 -168 5 -114 3 -155 -9 -203 -9 -33 -19 -73
-22 -88 -4 -19 -11 -27 -19 -24 -9 4 -12 0 -9 -13 3 -10 -4 -47 -16 -82 -24
-72 -20 -113 9 -98 13 7 20 6 24 -5 3 -8 9 -14 13 -14 14 3 47 -14 67 -33 13
-14 21 -17 29 -9 6 6 21 11 32 11 20 0 21 3 14 58 -4 31 -8 64 -10 72 -2 8 2
14 9 13 14 -3 16 13 2 22 -5 3 -10 28 -10 56 0 29 -4 49 -11 49 -8 0 -8 5 1
15 7 8 9 15 4 15 -10 0 -10 56 0 80 13 34 24 103 19 118 -4 9 -2 13 4 9 12 -8
38 76 28 92 -4 7 5 11 26 11 l31 0 -4 -173 c-3 -105 -12 -208 -23 -265 -13
-68 -15 -96 -7 -104 15 -15 62 -19 62 -5 0 8 3 8 12 -1 19 -19 28 -14 27 16 0
15 -3 21 -6 15 -3 -10 -8 -10 -19 1 -19 20 -19 43 0 27 11 -10 15 -8 18 6 3
10 8 -3 12 -30 6 -34 13 -47 25 -47 10 0 17 9 18 20 1 11 -1 19 -5 16 -4 -2
-8 20 -10 49 -2 29 2 56 8 60 6 3 10 -3 10 -17 0 -13 5 -30 11 -38 8 -12 9 -9
5 12 -3 15 -1 30 5 33 7 5 6 12 -4 23 -16 19 -16 20 -19 117 0 39 2 80 6 92 6
17 1 25 -21 37 -21 11 -23 15 -10 16 19 0 19 25 0 25 -6 0 -14 3 -18 6 -3 4 4
6 17 5 19 -1 24 6 29 39 5 27 3 42 -5 47 -18 10 -63 51 -48 43 6 -3 12 -1 12
4 0 10 -13 15 -32 13 -3 -1 -9 6 -12 14 -5 13 0 14 25 9 36 -8 51 7 42 43 -3
12 0 29 6 36 9 11 8 17 -8 28 -12 8 -18 18 -13 23 4 5 1 5 -6 1 -7 -4 -26 2
-43 14 -48 35 -44 17 6 -22 24 -19 42 -38 39 -40 -8 -8 -44 3 -44 13 0 5 -11
14 -25 19 -14 5 -25 15 -25 21 0 7 -3 9 -7 6 -7 -8 -33 11 -33 25 0 5 10 6 22
2 21 -6 22 -5 8 11 -14 17 -13 18 13 13 19 -4 27 -1 27 8 0 17 12 18 28 2 17
-17 15 -29 -3 -22 -8 4 -15 2 -15 -4 0 -5 7 -12 15 -15 9 -4 20 5 30 25 14 30
14 33 -2 42 -10 6 -28 11 -41 12 -40 2 -36 14 5 14 23 0 46 -6 52 -14 7 -8 21
-12 33 -8 15 3 19 2 14 -7 -4 -6 -11 -9 -15 -7 -4 3 -8 -9 -8 -27 -1 -18 -4
-43 -8 -57 -5 -21 -5 -23 7 -10 7 8 25 21 41 29 19 10 27 22 27 40 0 14 5 33
10 41 11 18 13 -5 12 -190 0 -83 3 -115 8 -97 13 43 30 194 30 264 0 34 3 68
6 77 8 20 24 21 24 2 0 -7 9 -25 21 -40 14 -18 18 -33 14 -48 -6 -19 -5 -21 6
-11 10 10 16 6 31 -17 19 -32 24 -80 9 -80 -4 0 -21 10 -36 22 -25 20 -27 20
-17 2 6 -11 22 -26 36 -34 23 -12 26 -20 26 -66 0 -29 -4 -56 -10 -59 -15 -9
-12 -51 5 -65 9 -7 15 -29 15 -51 0 -35 26 -102 54 -138 6 -8 21 -37 34 -65
l23 -51 -5 40 c-3 22 -6 58 -6 81 0 27 -7 48 -21 63 -17 18 -20 32 -17 76 1
29 0 51 -4 49 -4 -3 -12 5 -18 17 -8 15 -9 19 -1 15 14 -9 14 0 -1 27 -13 24
-17 117 -5 117 4 0 -1 17 -12 38 -13 25 -20 61 -21 112 -3 102 -2 106 18 126
16 17 16 17 0 11 -10 -3 -20 -2 -23 2 -3 5 1 11 8 14 7 3 19 23 25 45 14 47
26 52 137 52 61 0 90 -5 120 -20 22 -11 59 -20 85 -20 25 0 55 -7 66 -15 26
-19 32 -19 39 6 4 12 12 18 21 15 20 -8 17 11 -3 23 -15 9 -13 10 12 11 29 1
29 1 8 13 -12 7 -22 17 -23 22 -1 6 -6 16 -12 22 -7 9 -5 15 7 19 13 5 14 9 3
15 -18 12 -31 11 -23 -1 5 -9 -39 -15 -92 -13 -7 1 -13 -5 -13 -13 0 -8 -10
-12 -29 -11 -18 1 -27 7 -24 15 4 8 0 10 -11 6 -11 -4 -16 -1 -16 10 0 21 -12
20 -40 -4 -21 -19 -42 -29 -26 -13 11 12 -78 29 -137 27 -31 -1 -54 2 -51 7 3
5 14 9 26 9 17 0 18 2 8 15 -7 9 -22 14 -34 13 -16 -2 -27 10 -51 55 -17 32
-54 85 -82 117 -39 45 -58 79 -78 140 -15 44 -28 91 -29 103 -2 12 -7 38 -11
57 -5 19 -8 43 -6 53 1 9 -8 31 -20 48 l-22 31 27 22 c22 17 26 26 21 48 -4
15 -13 32 -21 39 -8 6 -11 16 -8 21 4 6 -2 7 -15 3 -16 -5 -27 -1 -42 16 -10
12 -19 24 -19 27 0 2 16 20 35 39 39 39 44 53 16 53 -20 0 -31 18 -31 51 0 16
6 20 28 17 22 -2 28 -9 33 -38 4 -19 7 -32 8 -28 0 4 98 -90 217 -208 119
-118 235 -229 257 -245 23 -17 105 -93 182 -169 149 -147 236 -210 292 -210
86 0 243 169 243 260 0 25 -13 46 -62 98 -35 36 -78 79 -97 96 -19 17 -45 40
-57 51 -12 11 -48 43 -79 70 -32 28 -101 93 -154 145 -53 52 -125 120 -161
149 -36 30 -76 68 -89 85 -14 17 -51 54 -84 81 -123 104 -120 99 -113 158 3
29 2 92 -3 142 -8 84 -7 91 12 107 19 17 20 19 2 38 -10 11 -26 18 -34 15 -11
-3 -25 10 -45 42 -27 46 -28 48 -11 76 15 24 15 31 4 38 -8 5 -24 8 -37 6 -26
-5 -46 22 -35 49 4 12 3 15 -5 10 -9 -5 -9 -1 -3 16 6 15 16 22 29 21 18 -2
19 3 16 50 -5 72 -13 125 -25 172 -6 22 -13 55 -16 72 -4 28 -10 33 -42 39
-54 9 -61 12 -61 30 0 14 7 15 42 10 23 -4 46 -12 50 -19 4 -7 8 9 8 35 l0 47
-50 7 c-40 5 -50 10 -50 26 0 16 5 18 38 12 20 -3 42 -12 48 -20 15 -19 22
-18 27 4 4 13 5 11 6 -5 0 -13 6 -23 11 -23 16 0 6 93 -12 119 -18 26 -27 13
-23 -34 1 -16 0 -20 -2 -9 -4 23 -29 34 -74 34 -33 0 -46 26 -18 33 11 3 34 1
50 -5 36 -13 38 -11 32 29 -5 29 -9 32 -53 38 -61 8 -77 35 -22 35 21 0 44 -6
51 -12 11 -11 12 -7 6 22 -9 43 -13 51 -28 49 -30 -4 -47 2 -47 16 0 8 -5 15
-12 15 -6 0 -9 2 -7 5 3 2 20 1 37 -4 23 -7 32 -6 32 2 0 7 -20 59 -45 116
-50 117 -53 151 -4 47 17 -36 33 -66 35 -66 2 0 1 26 -2 58 l-6 57 26 -30 c28
-33 32 -30 14 12 -6 15 -12 31 -12 34 -2 13 -42 85 -57 102 -9 10 -15 26 -12
35 2 10 -10 43 -26 74 -21 40 -26 56 -16 51 13 -5 14 -1 4 23 -20 49 -26 67
-42 121 l-15 51 32 30 c17 16 83 73 146 128 131 113 129 111 308 268 l133 117
30 -25 c36 -30 49 -32 96 -9 26 12 33 21 29 36 -4 16 -1 18 22 14 15 -3 38 1
52 8 32 17 87 76 89 95 6 59 10 73 26 88 17 16 17 16 12 0 -8 -23 5 -23 19 0
6 9 36 30 67 47 31 16 55 31 53 33 -3 2 -14 -1 -25 -8 -17 -8 -21 -8 -19 2 5
20 62 76 74 71 5 -2 19 5 29 17 26 29 46 26 41 -6 -3 -14 0 -27 8 -30 15 -6
86 23 86 35 0 4 11 20 25 35 20 21 23 31 15 46 -12 23 -13 30 -1 30 5 0 12
-11 15 -24 8 -31 30 -26 82 20 21 18 45 34 53 34 8 0 11 6 7 15 -3 9 1 18 9
21 22 9 18 21 -7 28 -17 4 -20 8 -11 17 15 15 51 2 81 -30 l24 -26 -3 25 c-3
23 23 76 44 91 15 11 -11 46 -39 53 -15 4 -30 4 -33 -1 -3 -4 -17 -8 -31 -8
-19 0 -26 6 -28 25 -2 14 -6 32 -9 40 -8 18 -10 27 -12 40 0 6 -8 10 -17 10
-19 0 -44 24 -44 42 0 10 -3 9 -10 -2 -13 -20 -13 -4 0 21 7 13 7 25 1 38 -14
24 -41 35 -41 16z m-5 -65 c-9 -29 -26 -12 -18 18 4 15 9 20 15 14 6 -6 7 -20
3 -32z m-141 -26 c9 -3 16 -10 16 -14 0 -10 -38 -1 -46 11 -6 10 7 12 30 3z
m26 -54 c0 -5 6 -10 13 -10 11 0 47 -34 47 -45 0 -2 -12 2 -26 10 -29 15 -61
55 -45 55 6 0 11 -4 11 -10z m-432 -105 c-10 -64 -7 -123 8 -155 7 -14 15 -36
19 -50 l6 -25 -20 23 c-11 12 -21 28 -24 35 -3 9 -10 7 -23 -6 -19 -18 -18
-19 5 -38 19 -16 21 -22 11 -34 -18 -22 -26 -19 -50 21 -21 33 -21 36 -5 48
18 13 18 36 0 122 -8 35 11 57 26 33 8 -11 12 -10 24 5 18 24 19 31 1 45 -7 6
-11 22 -9 35 5 22 6 23 22 8 14 -14 15 -26 9 -67z m-134 38 c8 -21 -10 -41
-24 -27 -11 11 -3 44 10 44 4 0 11 -8 14 -17z m-1990 -13 c-3 -8 -7 -22 -8
-30 0 -8 -5 -19 -11 -23 -6 -4 -1 -7 10 -6 11 1 29 1 40 0 18 -1 19 -2 3 -12
-10 -5 -18 -15 -18 -20 0 -6 5 -7 10 -4 6 3 10 1 10 -4 0 -6 -7 -11 -16 -11
-8 0 -13 -4 -10 -9 4 -5 -9 -6 -29 -1 -19 4 -37 5 -40 2 -3 -4 -3 1 0 10 4 9
16 19 28 21 18 3 16 5 -10 12 -23 5 -33 13 -33 26 0 11 -4 19 -10 19 -5 0 -10
4 -10 9 0 5 8 7 19 4 10 -3 22 0 25 6 4 6 1 11 -6 11 -9 0 -9 3 2 10 24 15 62
8 54 -10z m51 0 c-27 -12 -43 -12 -25 0 8 5 22 9 30 9 10 0 8 -3 -5 -9z m-165
-20 c3 -1 -4 -5 -15 -9 -22 -9 -45 -4 -45 9 0 7 41 7 60 0z m135 -10 c3 -5 -1
-10 -10 -10 -9 0 -13 5 -10 10 3 6 8 10 10 10 2 0 7 -4 10 -10z m88 -14 c4
-10 -2 -13 -19 -12 -22 1 -23 2 -7 14 21 15 20 15 26 -2z m2637 -2 c0 -20 -28
-43 -53 -44 -29 0 -18 43 13 51 38 11 40 10 40 -7z m-83 -8 c5 -5 0 -6 -11 -2
-13 5 -17 2 -13 -9 4 -8 3 -17 -2 -19 -9 -6 -51 21 -51 32 0 11 67 9 77 -2z
m-2472 -16 c3 -5 -3 -10 -14 -10 -12 0 -21 5 -21 10 0 6 6 10 14 10 8 0 18 -4
21 -10z m-97 -7 c-10 -2 -18 -9 -18 -14 0 -6 5 -7 12 -3 7 4 8 3 4 -4 -4 -7
-14 -12 -23 -12 -11 0 -14 -6 -9 -25 4 -14 2 -25 -4 -25 -11 0 -14 13 -10 45
2 22 28 45 50 44 11 -1 10 -3 -2 -6z m-188 -37 c0 -19 -48 -30 -66 -15 -8 7
-12 14 -9 17 2 3 11 0 18 -7 15 -12 47 -5 47 10 0 5 2 9 5 9 3 0 5 -6 5 -14z
m23 -29 c-4 -7 0 -6 10 2 12 9 17 10 17 2 0 -7 5 -9 10 -6 6 3 10 4 10 1 0 -2
2 -10 5 -18 4 -10 -10 -14 -55 -15 -60 -2 -72 4 -46 26 11 10 17 8 25 -6 9
-13 11 -14 10 -3 -3 29 1 41 11 35 6 -4 7 -12 3 -18z m-88 -7 c4 -6 -5 -10
-20 -10 -15 0 -24 4 -20 10 3 6 12 10 20 10 8 0 17 -4 20 -10z m192 -6 c-3 -3
-12 -4 -19 -1 -8 3 -5 6 6 6 11 1 17 -2 13 -5z m-24 -61 c-3 -7 0 -13 7 -13 6
0 8 -4 5 -10 -10 -17 -22 -11 -27 13 -3 15 0 24 8 24 7 0 10 -6 7 -14z m1700
-26 c-5 -8 -8 -7 -11 1 -2 7 -9 9 -14 6 -7 -4 -8 -2 -4 4 4 6 13 9 21 6 8 -4
12 -11 8 -17z m-1653 9 c0 -3 -4 -8 -10 -11 -5 -3 -10 -1 -10 4 0 6 5 11 10
11 6 0 10 -2 10 -4z m-40 -67 c0 -6 -4 -7 -10 -4 -5 3 -10 11 -10 16 0 6 5 7
10 4 6 -3 10 -11 10 -16z m30 11 c0 -5 -2 -10 -4 -10 -3 0 -8 5 -11 10 -3 6
-1 10 4 10 6 0 11 -4 11 -10z m-215 -10 c3 -5 -1 -10 -9 -10 -8 0 -18 5 -21
10 -3 6 1 10 9 10 8 0 18 -4 21 -10z m2424 -90 c0 -22 -2 -21 -14 10 -18 47
-18 58 0 34 8 -10 14 -30 14 -44z m-2769 30 c0 -5 -7 -10 -15 -10 -8 0 -15 5
-15 10 0 6 7 10 15 10 8 0 15 -4 15 -10z m0 -43 c17 -8 25 -21 25 -37 0 -23
-4 -25 -48 -28 -51 -3 -77 9 -77 37 0 39 50 53 100 28z m2359 -55 c1 -10 -3
-10 -18 0 -16 10 -18 16 -9 32 11 20 11 20 19 1 4 -11 8 -26 8 -33z m-236 -2
c-15 -16 -31 -30 -35 -30 -15 0 5 39 25 48 37 18 40 13 10 -18z m-2188 -31
c10 -14 1 -21 -34 -25 -31 -4 -47 8 -36 26 8 13 62 13 70 -1z m1729 -25 c3 -8
2 -12 -4 -9 -6 3 -10 10 -10 16 0 14 7 11 14 -7z m51 6 c3 -5 1 -10 -4 -10 -6
0 -11 5 -11 10 0 6 2 10 4 10 3 0 8 -4 11 -10z m287 -12 c-7 -7 -12 -8 -12 -2
0 14 12 26 19 19 2 -3 -1 -11 -7 -17z m33 -17 c-3 -6 -11 -11 -17 -11 -6 0 -6
6 2 15 14 17 26 13 15 -4z m-375 -19 c0 -15 -2 -15 -10 -2 -13 20 -13 33 0 25
6 -3 10 -14 10 -23z m94 12 c19 -19 19 -21 3 -27 -17 -6 -51 19 -42 32 9 15
21 14 39 -5z m-1817 -47 c21 -12 16 -47 -6 -47 -27 0 -56 57 -39 77 10 12 13
12 21 -4 6 -10 16 -22 24 -26z m53 -25 c0 -13 -12 -22 -22 -16 -10 6 -1 24 13
24 5 0 9 -4 9 -8z m1673 -65 l19 -32 -26 24 c-26 24 -33 41 -18 41 4 0 15 -15
25 -33z m-1723 3 c15 -9 16 -9 -35 -25 -18 -5 -20 6 -3 23 14 14 18 15 38 2z
m5 -90 c3 -5 1 -10 -4 -10 -6 0 -11 5 -11 10 0 6 2 10 4 10 3 0 8 -4 11 -10z
m37 -42 c75 -43 86 -146 23 -214 -12 -13 -29 -24 -37 -24 -8 0 -18 -4 -24 -10
-14 -14 -73 10 -80 32 -3 10 -9 18 -13 18 -14 0 -21 88 -10 117 18 48 67 90
107 92 7 1 22 -5 34 -11z m1826 -350 c7 -7 12 -19 12 -27 -1 -14 -3 -13 -14 1
-7 10 -31 22 -52 27 l-39 9 41 1 c22 1 45 -4 52 -11z m-8 -91 c0 -11 -89 -278
-94 -284 -2 -2 -2 22 -2 52 0 30 4 49 8 42 4 -7 8 -7 8 -1 0 5 -7 19 -15 30
-8 10 -15 33 -15 51 0 22 -8 37 -27 52 -23 17 -25 22 -13 30 8 5 17 8 21 5 4
-2 10 0 14 6 10 16 22 12 28 -10 3 -11 12 -20 21 -20 9 0 16 8 16 20 0 11 -4
20 -10 20 -5 0 -10 5 -10 10 0 6 16 10 35 10 21 0 35 -5 35 -13z m-133 -3 c-3
-3 -12 -4 -19 -1 -8 3 -5 6 6 6 11 1 17 -2 13 -5z m-69 -137 c3 -16 1 -17 -17
-7 -25 13 -28 33 -4 28 10 -2 19 -11 21 -21z m-884 -34 c-18 -13 -18 -13 1
-11 11 2 26 8 34 13 10 5 16 4 19 -3 2 -7 8 -12 14 -12 5 0 15 -6 22 -13 11
-10 10 -15 -1 -25 -10 -10 -13 -10 -13 5 0 12 -3 14 -11 6 -6 -6 -18 -9 -25
-6 -9 3 -14 -3 -14 -18 -1 -30 -25 -63 -39 -54 -6 3 -11 2 -11 -2 0 -5 -12 -9
-27 -8 -16 0 -30 -3 -33 -6 -10 -13 -80 -22 -80 -10 0 6 5 11 11 11 5 0 7 5 4
11 -4 6 -13 8 -20 5 -8 -3 -19 2 -25 10 -10 11 -9 14 6 15 17 1 17 2 2 6 -30
8 -21 31 10 27 15 -2 19 -1 10 2 -10 3 -18 10 -18 15 0 6 9 7 21 4 18 -6 20
-4 14 17 -3 12 -3 18 2 13 13 -18 63 -17 70 1 4 12 8 13 14 3 11 -18 39 -20
39 -3 0 8 7 14 15 14 9 0 15 10 16 23 1 19 2 20 6 3 3 -12 -2 -25 -13 -33z
m-99 27 c3 -5 -1 -10 -10 -10 -9 0 -13 5 -10 10 3 6 8 10 10 10 2 0 7 -4 10
-10z m1028 -14 c8 -8 13 -25 12 -38 -1 -13 -3 -31 -4 -40 -2 -26 -31 -22 -32
5 -1 12 -2 37 -4 55 -3 35 5 40 28 18z m47 -60 c0 -3 -4 -8 -10 -11 -5 -3 -10
-1 -10 4 0 6 5 11 10 11 6 0 10 -2 10 -4z m180 -32 c24 -38 23 -55 -2 -27 -16
18 -33 63 -24 63 2 0 14 -16 26 -36z m-1030 -10 c-18 -21 -24 -10 -9 18 8 14
14 18 17 10 2 -7 -2 -19 -8 -28z m-550 -28 c0 -11 -19 -15 -25 -6 -3 5 1 10 9
10 9 0 16 -2 16 -4z m1408 -25 c-2 -3 -10 -23 -18 -43 -14 -38 -36 -54 -26
-20 3 9 8 29 11 43 4 14 13 26 21 26 8 0 13 -3 12 -6z m-1358 -8 c0 -14 -19
-38 -25 -32 -8 8 5 39 16 39 5 0 9 -3 9 -7z m62 -15 c-7 -7 -12 -8 -12 -2 0 6
3 14 7 17 3 4 9 5 12 2 2 -3 -1 -11 -7 -17z m120 -12 c7 4 8 2 4 -4 -4 -6 -13
-9 -21 -6 -8 4 -12 11 -8 17 5 8 8 7 11 -1 2 -7 9 -9 14 -6z m-279 -3 c-7 -2
-19 -2 -25 0 -7 3 -2 5 12 5 14 0 19 -2 13 -5z m884 -6 c7 -5 17 -6 22 -3 12
8 87 -21 79 -30 -3 -3 -25 0 -49 6 -24 7 -72 13 -108 14 -92 4 -104 8 -46 16
68 8 88 8 102 -3z m-367 -17 c-19 -12 -30 -12 -30 -1 0 10 31 20 40 14 2 -2
-2 -8 -10 -13z m-1355 -127 c4 -14 2 -23 -4 -23 -6 0 -11 3 -11 8 0 4 -3 18
-6 32 -8 31 11 16 21 -17z m2245 -4 c0 -22 -11 -24 -28 -7 -19 19 -14 37 8 31
11 -3 20 -14 20 -24z m-1039 -62 c-10 -9 -11 -8 -5 6 3 10 9 15 12 12 3 -3 0
-11 -7 -18z m1099 -20 c0 -12 -5 -29 -10 -37 -7 -11 -10 -3 -10 28 0 26 4 41
10 37 6 -3 10 -16 10 -28z m-1083 -3 c-3 -3 -12 -4 -19 -1 -8 3 -5 6 6 6 11 1
17 -2 13 -5z m759 -60 c-4 -18 -11 -34 -16 -34 -6 0 -10 -8 -10 -18 0 -10 -3
-22 -7 -26 -5 -4 -8 -11 -8 -14 -1 -4 -6 -17 -13 -28 -6 -12 -9 -24 -6 -27 17
-16 -135 -95 -158 -81 -5 3 -15 0 -23 -6 -15 -12 -55 -5 -55 11 0 5 -7 9 -15
9 -8 0 -15 -5 -15 -11 0 -6 -7 -8 -15 -5 -8 3 -22 9 -32 13 -11 4 -14 3 -9 -5
8 -14 0 -14 -29 -2 -11 5 -14 9 -7 9 7 1 11 5 8 10 -3 4 33 11 79 14 47 2 91
10 99 16 7 6 16 7 21 3 4 -4 6 0 3 8 -5 15 31 50 51 50 6 0 11 9 11 19 0 16 6
19 35 16 29 -2 39 2 55 25 11 15 20 38 20 51 0 25 32 67 38 49 2 -6 1 -27 -2
-46z m109 6 c-3 -5 0 -21 7 -37 16 -38 21 -93 8 -93 -5 0 -10 13 -10 28 0 16
-3 32 -7 36 -5 4 -8 17 -9 29 -1 12 -2 27 -4 32 -1 6 -2 21 -1 35 l2 25 10
-23 c5 -13 7 -28 4 -32z m-2103 15 c0 -5 -5 -11 -11 -13 -6 -2 -11 4 -11 13 0
9 5 15 11 13 6 -2 11 -8 11 -13z m2383 -68 c27 -37 47 -106 26 -93 -7 5 -10
14 -7 21 5 15 -14 45 -58 94 -25 27 -27 31 -9 22 12 -6 34 -26 48 -44z m-1125
33 c0 -5 -7 -10 -16 -10 -8 0 -12 5 -9 10 3 6 10 10 16 10 5 0 9 -4 9 -10z
m-1273 -67 c-3 -10 -5 -4 -5 12 0 17 2 24 5 18 2 -7 2 -21 0 -30z m1273 -3 c0
-5 -4 -10 -10 -10 -5 0 -10 5 -10 10 0 6 5 10 10 10 6 0 10 -4 10 -10z m980
-37 c-1 -38 -3 -44 -11 -30 -9 16 -4 77 7 77 2 0 4 -21 4 -47z m-1653 30 c-9
-2 -15 -8 -12 -13 3 -4 -2 -10 -9 -13 -10 -4 -14 0 -13 12 0 11 10 17 26 18
15 0 19 -1 8 -4z m1577 -102 c-2 -25 -12 -53 -22 -64 -9 -11 -11 -17 -4 -13 7
4 12 2 12 -6 1 -8 6 -5 16 7 13 18 14 17 8 -15 -4 -19 -13 -44 -21 -55 -13
-18 -13 -17 -8 13 5 31 4 32 -16 22 -12 -7 -18 -18 -15 -26 7 -17 -55 -47 -66
-31 -4 6 -13 4 -23 -6 -9 -10 -22 -17 -28 -16 -8 0 -8 2 1 6 6 2 10 9 6 14 -5
8 3 10 50 13 10 1 22 12 27 26 8 23 8 24 -5 6 -15 -19 -42 -13 -29 7 8 13 9
18 12 57 1 20 3 22 11 10 9 -13 14 -7 11 13 -2 16 10 6 20 -15 9 -22 9 -22 6
4 -2 15 0 32 4 40 4 7 4 17 -1 23 -6 8 -4 19 6 31 15 18 15 18 9 -3 -5 -17 -2
-23 10 -23 11 0 14 7 11 24 -2 13 -2 27 2 31 11 11 20 -29 16 -74z m-936 24
c-3 -3 -9 2 -12 12 -6 14 -5 15 5 6 7 -7 10 -15 7 -18z m850 0 c-3 -3 -9 2
-12 12 -6 14 -5 15 5 6 7 -7 10 -15 7 -18z m-2089 -38 c0 -21 -1 -21 -9 -2
-12 28 -12 37 0 30 6 -3 10 -16 9 -28z m2439 -101 c0 -25 -6 -52 -13 -62 -11
-16 -12 -12 -9 26 4 43 12 80 19 80 2 0 3 -20 3 -44z m-2503 14 c3 -5 1 -10
-4 -10 -6 0 -11 5 -11 10 0 6 2 10 4 10 3 0 8 -4 11 -10z m55 -10 c0 -5 -5
-10 -11 -10 -5 0 -7 5 -4 10 3 6 8 10 11 10 2 0 4 -4 4 -10z m700 -90 c0 -13
-1 -13 -10 0 -5 8 -10 22 -10 30 0 13 1 13 10 0 5 -8 10 -22 10 -30z m614 24
c12 -31 6 -155 -9 -184 -22 -43 -86 -83 -71 -45 3 8 1 15 -4 15 -17 0 -11 30
11 61 11 16 27 29 34 29 20 0 28 35 20 91 -7 47 5 69 19 33z m-1339 -24 c8
-13 -5 -13 -25 0 -13 8 -13 10 2 10 9 0 20 -4 23 -10z m42 -22 c-3 -7 -5 -2
-5 12 0 14 2 19 5 13 2 -7 2 -19 0 -25z m817 -14 c3 -8 2 -12 -4 -9 -6 3 -10
10 -10 16 0 14 7 11 14 -7z m-116 -13 c3 -8 -1 -12 -9 -9 -7 2 -15 10 -17 17
-3 8 1 12 9 9 7 -2 15 -10 17 -17z m379 -46 c-2 -30 0 -55 4 -55 12 0 11 -104
-1 -116 -12 -12 -16 -72 -6 -102 5 -16 13 -21 25 -17 11 3 27 -6 45 -24 l28
-29 -42 -7 c-28 -5 -45 -3 -50 4 -4 8 -15 9 -30 3 -16 -6 -20 -11 -11 -16 7
-5 15 -5 19 -2 3 4 12 -4 19 -16 9 -17 12 -19 13 -6 0 17 25 16 68 -5 28 -13
30 -41 3 -32 -14 4 -21 0 -25 -13 -11 -32 -53 -45 -89 -27 -35 17 -73 20 -82
5 -4 -6 -11 -8 -16 -4 -5 3 -7 10 -4 15 4 5 1 9 -4 9 -6 0 -11 -4 -11 -10 0
-14 -95 -7 -114 9 -29 24 -36 7 -15 -38 15 -33 17 -47 8 -57 -9 -11 -8 -14 5
-14 18 0 23 -45 6 -55 -19 -12 -48 6 -59 36 -8 24 -15 29 -30 24 -26 -8 -41
20 -41 78 0 31 5 47 15 51 8 3 15 4 15 2 0 -3 3 -12 7 -22 4 -11 3 -15 -4 -11
-17 11 -8 -39 10 -57 14 -15 15 -13 10 17 -3 23 0 37 12 47 14 12 13 15 -16
27 -38 16 -63 17 -54 2 4 -6 -2 -13 -13 -16 -23 -6 -39 -36 -23 -41 16 -5 13
-22 -3 -22 -30 0 -29 93 2 115 11 9 9 13 -12 23 -30 13 -34 28 -39 143 -3 72
-8 94 -31 133 -15 26 -34 50 -41 52 -7 3 -16 12 -19 20 -4 11 4 9 33 -6 21
-10 41 -16 45 -13 3 3 14 -5 25 -18 14 -17 20 -20 21 -9 0 13 1 13 10 0 5 -8
7 -25 3 -38 -5 -21 -3 -22 23 -12 40 16 54 29 54 54 1 19 2 20 14 4 10 -14 15
-15 25 -5 11 10 12 8 7 -8 -3 -11 -1 -27 5 -35 8 -11 9 -9 4 9 -6 19 -4 23 7
18 11 -4 14 2 13 24 -1 16 1 29 4 29 6 0 35 -35 52 -62 3 -5 16 -10 28 -11 14
-1 20 -6 16 -15 -9 -23 5 -33 22 -17 9 9 22 14 30 11 8 -3 11 -1 8 4 -3 5 10
16 28 24 27 11 41 27 61 70 15 31 29 56 32 56 3 0 3 -25 1 -55z m-1151 -11
c-4 -9 -9 -15 -11 -12 -3 3 -3 13 1 22 4 9 9 15 11 12 3 -3 3 -13 -1 -22z
m2189 -18 c-4 -20 -12 -36 -17 -36 -5 0 -6 10 -3 23 4 12 9 30 12 40 9 32 15
11 8 -27z m503 -27 c2 -5 8 -7 13 -3 5 3 9 0 9 -5 0 -12 -9 -14 -60 -11 -35 2
-54 16 -43 33 7 11 77 -1 81 -14z m-281 -31 c-3 -8 -6 -5 -6 6 -1 11 2 17 5
13 3 -3 4 -12 1 -19z m-237 -64 c0 -56 -3 -75 -12 -72 -21 7 -26 70 -9 92 9
11 10 16 4 12 -7 -4 -13 -4 -13 -1 0 9 20 45 25 45 3 0 5 -34 5 -76z m-471
-28 c-12 -69 -45 -131 -69 -131 -11 0 -14 9 -12 30 2 17 8 32 13 33 5 2 9 9 9
15 0 6 -11 0 -25 -13 -21 -19 -25 -21 -25 -7 0 9 6 17 13 17 8 0 7 4 -3 10 -9
6 -11 10 -3 10 7 0 10 7 7 15 -4 8 -1 15 6 15 7 0 9 8 5 21 -5 15 -4 19 4 15
6 -4 11 -16 11 -27 0 -25 17 -25 25 1 4 11 10 18 15 15 4 -3 13 9 19 27 18 50
23 26 10 -46z m-1089 13 c0 -4 -7 -6 -15 -3 -8 4 -15 10 -15 15 0 4 7 6 15 3
8 -4 15 -10 15 -15z m1784 6 c3 -8 1 -15 -4 -15 -6 0 -10 7 -10 15 0 8 2 15 4
15 2 0 6 -7 10 -15z m46 -6 c0 -6 -4 -7 -10 -4 -5 3 -10 11 -10 16 0 6 5 7 10
4 6 -3 10 -11 10 -16z m227 5 c11 -3 23 -14 26 -25 4 -16 0 -18 -26 -14 -18 2
-42 4 -54 4 -16 1 -20 6 -16 21 5 20 28 25 70 14z m-224 -42 c8 -9 20 -29 26
-45 6 -15 18 -27 28 -27 17 -1 17 -1 1 -11 -10 -5 -18 -17 -18 -24 0 -17 -2
-17 -24 -9 -13 5 -14 9 -4 21 8 9 8 17 2 21 -10 7 -19 24 -24 47 -1 6 -6 18
-11 28 -12 22 3 22 24 -1z m-675 -30 c2 -20 -1 -32 -8 -32 -7 0 -10 6 -7 14 3
8 -1 20 -8 26 -16 14 -10 33 8 27 7 -2 13 -18 15 -35z m-318 -16 c0 -3 -4 -8
-10 -11 -5 -3 -10 -1 -10 4 0 6 5 11 10 11 6 0 10 -2 10 -4z m573 -28 c-9 -50
-25 -71 -18 -23 4 22 9 43 11 47 10 17 13 7 7 -24z m-553 -17 c17 -33 12 -46
-10 -26 -18 16 -20 16 -20 2 0 -10 -5 -17 -11 -17 -6 0 -8 7 -5 16 3 9 6 22 6
30 0 21 28 17 40 -5z m250 -47 c0 -18 -11 -44 -19 -44 -3 0 -7 21 -8 48 -3 43
-2 46 12 28 8 -11 15 -25 15 -32z m952 38 c14 -6 14 -10 3 -25 -10 -14 -17
-16 -40 -7 -14 6 -31 7 -37 4 -12 -7 -29 16 -22 28 6 10 72 9 96 0z m-1262
-22 c0 -5 -4 -10 -10 -10 -5 0 -10 5 -10 10 0 6 5 10 10 10 6 0 10 -4 10 -10z
m195 -117 c-14 -20 -19 -23 -26 -12 -5 8 -9 23 -9 34 1 19 1 19 14 2 12 -15
14 -13 22 25 l8 43 4 -33 c2 -20 -3 -44 -13 -59z m531 37 c19 0 18 -53 -1 -90
-19 -37 -31 -38 -39 -5 -4 14 -11 25 -16 25 -7 0 -7 6 0 18 5 9 15 31 21 47 6
17 13 24 16 18 3 -7 11 -13 19 -13z m314 10 c0 -5 -2 -10 -4 -10 -3 0 -8 5
-11 10 -3 6 -1 10 4 10 6 0 11 -4 11 -10z m-1110 -15 c-7 -9 -15 -13 -19 -10
-3 3 1 10 9 15 21 14 24 12 10 -5z m182 -12 c34 -31 18 -159 -20 -151 -12 3
-16 12 -14 31 2 19 -2 27 -12 27 -12 0 -15 11 -13 50 1 35 6 49 15 45 6 -2 12
0 12 5 0 15 11 12 32 -7z m-262 -23 c0 -5 -2 -10 -4 -10 -3 0 -8 5 -11 10 -3
6 -1 10 4 10 6 0 11 -4 11 -10z m1376 -16 c-3 -9 -6 -20 -6 -25 0 -13 -42 -1
-52 14 -11 18 1 27 34 27 23 0 29 -4 24 -16z m-1556 -19 c0 -8 0 -17 0 -21 -1
-3 9 -14 22 -25 20 -17 21 -18 3 -12 -17 6 -18 4 -8 -8 8 -10 9 -19 3 -25 -14
-14 -1 -54 16 -47 10 4 12 0 8 -11 -6 -15 -24 -15 -71 -1 -27 9 -38 120 -16
158 8 13 43 7 43 -8z m164 9 c9 -3 16 -15 16 -26 0 -10 5 -16 10 -13 12 7 12
3 4 -20 -6 -14 -9 -13 -30 6 l-24 22 0 -46 c0 -47 -16 -70 -31 -46 -5 8 -8 34
-7 59 l1 45 6 -40 c5 -30 8 -36 14 -22 4 10 7 31 7 46 0 38 7 45 34 35z m166
-23 c0 -4 -11 -6 -25 -3 -15 2 -25 0 -25 -7 0 -6 -5 -11 -11 -11 -8 0 -8 5 1
15 13 16 60 21 60 6z m1037 -48 c-3 -10 -5 -2 -5 17 0 19 2 27 5 18 2 -10 2
-26 0 -35z m-1003 -31 c-5 -14 -15 -27 -23 -30 -10 -3 -12 0 -7 13 3 10 1 25
-6 33 -10 12 -10 14 0 8 8 -5 12 1 12 21 l0 27 16 -23 c13 -17 15 -30 8 -49z
m-124 12 c9 -27 9 -38 -1 -50 -16 -20 -24 -9 -21 31 2 18 -2 36 -7 40 -6 3 -9
11 -5 16 9 15 22 2 34 -37z m405 -5 c4 -11 4 -23 2 -26 -9 -8 -24 5 -30 27 -7
27 20 27 28 -1z m-590 -19 c3 -6 -1 -7 -9 -4 -18 7 -21 14 -7 14 6 0 13 -4 16
-10z m1451 -26 c-3 -9 -6 -21 -6 -28 0 -6 -9 -12 -20 -13 -23 -2 -23 -2 -10
31 5 14 17 26 26 26 11 0 14 -5 10 -16z m-1406 -18 c0 -10 -34 2 -38 13 -3 10
0 10 17 2 11 -7 21 -13 21 -15z m563 -1 c-3 -9 -8 -14 -10 -11 -3 3 -2 9 2 15
9 16 15 13 8 -4z m724 -97 c-3 -7 -5 -2 -5 12 0 14 2 19 5 13 2 -7 2 -19 0
-25z m27 -74 c-9 -13 -19 -22 -22 -19 -8 8 20 55 29 49 5 -3 1 -16 -7 -30z
m-1509 16 l20 -9 -20 -1 c-15 -1 -16 -3 -5 -7 39 -15 40 -53 1 -53 -32 0 -61
30 -61 62 0 20 30 23 65 8z m335 -36 c0 -32 -2 -35 -15 -24 -13 11 -13 15 -3
21 10 7 10 9 1 9 -7 0 -13 7 -13 15 0 8 7 15 15 15 11 0 15 -11 15 -36z m-234
6 c8 0 14 -7 14 -16 0 -12 6 -15 25 -10 25 6 25 6 6 -13 -17 -17 -25 -18 -53
-10 -42 12 -41 12 -34 -6 3 -8 1 -15 -4 -15 -7 0 -7 37 -1 79 1 2 8 0 17 -3 9
-3 22 -6 30 -6z m134 1 c0 -5 -7 -11 -15 -15 -9 -3 -15 0 -15 9 0 8 7 15 15
15 8 0 15 -4 15 -9z m1267 -83 c-3 -8 -6 -5 -6 6 -1 11 2 17 5 13 3 -3 4 -12
1 -19z m-1067 -192 c0 -3 -4 -8 -10 -11 -5 -3 -10 -1 -10 4 0 6 5 11 10 11 6
0 10 -2 10 -4z m-66 -31 c-6 -16 -24 -21 -24 -7 0 11 11 22 21 22 5 0 6 -7 3
-15z m82 -14 c16 13 16 12 3 -8 -18 -29 -34 -29 -36 -1 -2 17 0 19 7 9 7 -13
11 -13 26 0z m-131 -11 c3 -5 1 -10 -4 -10 -6 0 -11 5 -11 10 0 6 2 10 4 10 3
0 8 -4 11 -10z m1117 -247 c19 -22 36 -74 31 -90 -6 -18 -48 -16 -63 2 -7 8
-20 15 -29 16 -10 0 -11 2 -3 6 6 2 12 11 12 19 0 8 5 14 10 14 6 0 10 11 10
25 0 29 11 32 32 8z m99 -116 c-10 -9 -11 -8 -5 6 3 10 9 15 12 12 3 -3 0 -11
-7 -18z m927 -22 c-3 -3 -9 2 -12 12 -6 14 -5 15 5 6 7 -7 10 -15 7 -18z
m-1058 5 c0 -5 -4 -10 -10 -10 -5 0 -10 5 -10 10 0 6 5 10 10 10 6 0 10 -4 10
-10z m-146 -18 c7 -12 -27 -39 -43 -34 -9 3 -7 9 6 22 20 21 29 24 37 12z m56
-6 c0 -12 -34 -36 -51 -36 -18 0 -18 1 -1 19 15 17 52 29 52 17z m100 -75 c0
-21 -13 -41 -26 -41 -17 0 -19 36 -1 43 19 8 27 8 27 -2z m110 -100 c0 -5 -6
-11 -12 -14 -10 -3 -10 -9 -2 -22 12 -21 43 -28 60 -14 16 13 24 -11 24 -76 0
-71 -15 -81 -64 -44 -22 16 -48 29 -58 29 -10 0 -18 5 -18 11 0 6 9 9 19 6 14
-3 18 -1 14 9 -3 8 0 14 7 14 9 0 10 3 1 13 -6 8 -8 16 -5 19 3 3 -6 15 -20
26 -38 30 -33 48 14 50 22 2 40 -1 40 -7z m58 -15 c3 -11 0 -16 -7 -12 -6 4
-11 0 -11 -8 0 -9 -4 -16 -10 -16 -5 0 -10 5 -10 11 0 5 -4 7 -10 4 -5 -3 -10
-1 -10 4 0 6 5 11 10 11 6 0 10 7 10 16 0 22 34 13 38 -10z m-268 -56 c0 -3
-9 -11 -20 -18 -32 -19 -43 -5 -23 29 16 27 19 28 30 12 7 -9 13 -19 13 -23z
m160 10 c0 -5 -7 -7 -15 -4 -8 4 -15 8 -15 10 0 2 7 4 15 4 8 0 15 -4 15 -10z
m10 -30 c0 -5 -5 -10 -11 -10 -5 0 -7 5 -4 10 3 6 8 10 11 10 2 0 4 -4 4 -10z
m-203 -49 c-5 -22 -1 -32 14 -43 14 -9 21 -29 25 -74 7 -67 0 -80 -41 -70 -46
12 -75 117 -40 146 8 7 13 23 11 36 -4 21 4 31 28 33 5 1 6 -12 3 -28z m208
-31 c3 -5 1 -10 -4 -10 -6 0 -11 5 -11 10 0 6 2 10 4 10 3 0 8 -4 11 -10z m32
-46 c-3 -3 -12 -4 -19 -1 -8 3 -5 6 6 6 11 1 17 -2 13 -5z m43 -4 c0 -5 -7 -7
-15 -4 -8 4 -15 8 -15 10 0 2 7 4 15 4 8 0 15 -4 15 -10z m190 -91 c16 -31 18
-39 6 -39 -8 0 -21 20 -30 45 -18 54 -4 50 24 -6z m-166 -1 c3 -18 8 -51 11
-73 9 -60 9 -67 1 -107 -9 -42 -42 -58 -62 -30 -12 16 -13 16 -20 -2 -8 -21
10 -36 44 -36 12 0 22 -5 22 -11 0 -5 -4 -7 -10 -4 -5 3 -10 2 -10 -2 0 -5
-12 -14 -27 -20 -23 -9 -4 -11 96 -12 114 -1 123 0 116 17 -20 46 -18 61 9 68
51 12 66 -8 47 -59 -6 -16 -21 -28 -40 -32 -17 -4 -31 -10 -31 -14 0 -9 -45
-14 -107 -13 -24 1 -43 -3 -43 -8 0 -6 6 -10 13 -10 7 0 22 -7 33 -15 19 -15
19 -16 -1 -14 -11 1 -22 0 -25 -1 -15 -5 -73 -4 -77 2 -2 5 3 8 11 8 9 0 16 7
16 15 0 8 -9 15 -20 15 -11 0 -20 7 -20 15 0 8 -4 15 -10 15 -6 0 -6 -9 0 -24
11 -29 -4 -38 -37 -23 -22 10 -31 27 -15 27 5 0 9 7 9 15 0 9 -21 25 -49 37
-65 28 -55 33 17 8 69 -24 65 -24 65 -5 0 8 -5 15 -12 15 -6 0 -4 8 6 19 9 10
14 25 10 35 -4 11 -1 16 10 16 18 0 22 35 7 59 -10 16 8 42 23 33 5 -3 6 0 2
7 -4 6 -11 9 -16 6 -9 -5 -20 28 -20 62 0 24 34 53 62 53 12 0 19 -10 22 -32z
m-99 -21 c0 -26 -20 -25 -23 2 -3 16 1 22 10 19 7 -3 13 -12 13 -21z m-55 -33
c0 -8 -5 -12 -10 -9 -6 4 -8 11 -5 16 9 14 15 11 15 -7z m54 -19 c-4 -8 -10
-15 -15 -15 -4 0 -6 7 -3 15 4 8 10 15 15 15 4 0 6 -7 3 -15z m-2 -40 c0 -5
-5 -11 -11 -13 -6 -2 -11 4 -11 13 0 9 5 15 11 13 6 -2 11 -8 11 -13z m753
-25 c-3 -5 -11 -10 -16 -10 -6 0 -7 5 -4 10 3 6 11 10 16 10 6 0 7 -4 4 -10z
m-950 -10 c3 -5 2 -10 -4 -10 -5 0 -13 5 -16 10 -3 6 -2 10 4 10 5 0 13 -4 16
-10z m-111 -106 c16 -6 22 -45 9 -57 -11 -12 -33 14 -33 39 0 26 1 27 24 18z
m-68 -79 c2 -19 -2 -25 -11 -21 -13 5 -15 -17 -2 -30 10 -10 9 -42 -1 -48 -12
-7 -54 33 -47 45 4 5 1 9 -6 9 -9 0 -8 4 3 13 8 6 21 27 28 45 14 37 31 31 36
-13z m51 9 c-9 -9 -28 6 -21 18 4 6 10 6 17 -1 6 -6 8 -13 4 -17z m223 6 c8
-5 12 -12 9 -15 -9 -8 -119 -25 -154 -24 -26 2 -25 3 10 9 40 7 40 7 -14 9
-30 0 -52 4 -48 7 20 20 170 31 197 14z m388 -22 c14 -14 16 -88 2 -88 -19 0
-41 47 -34 74 7 29 14 32 32 14z m-340 -278 c7 -11 9 -20 4 -20 -10 0 -32 22
-32 32 0 15 15 8 28 -12z m127 -308 c-3 -3 -11 0 -18 7 -9 10 -8 11 6 5 10 -3
15 -9 12 -12z m-1 -103 c-8 -13 -32 -11 -36 3 -3 7 3 20 11 30 15 17 16 17 23
-3 5 -11 6 -25 2 -30z"/>
<path d="M5280 5406 c0 -2 7 -7 16 -10 8 -3 12 -2 9 4 -6 10 -25 14 -25 6z"/>
<path d="M4137 4443 c-4 -3 -7 -11 -7 -17 0 -6 5 -5 12 2 6 6 9 14 7 17 -3 3
-9 2 -12 -2z"/>
<path d="M3860 3411 c-9 -3 -15 -12 -14 -18 1 -7 2 -20 3 -28 0 -8 6 -15 12
-15 6 0 8 9 4 21 -5 13 -2 25 6 30 17 10 9 18 -11 10z"/>
<path d="M3900 3374 c0 -8 5 -12 10 -9 6 3 10 10 10 16 0 5 -4 9 -10 9 -5 0
-10 -7 -10 -16z"/>
<path d="M3960 3180 c0 -5 5 -10 10 -10 6 0 10 5 10 10 0 6 -4 10 -10 10 -5 0
-10 -4 -10 -10z"/>
<path d="M3905 3150 c-3 -5 -1 -10 4 -10 6 0 11 5 11 10 0 6 -2 10 -4 10 -3 0
-8 -4 -11 -10z"/>
<path d="M4018 3103 c7 -3 16 -2 19 1 4 3 -2 6 -13 5 -11 0 -14 -3 -6 -6z"/>
<path d="M4540 3355 c0 -8 5 -15 10 -15 6 0 10 7 10 15 0 8 -4 15 -10 15 -5 0
-10 -7 -10 -15z"/>
<path d="M5325 1810 c4 -6 11 -8 16 -5 14 9 11 15 -7 15 -8 0 -12 -5 -9 -10z"/>
<path d="M5400 1740 c8 -5 22 -10 30 -10 13 0 13 1 0 10 -8 5 -22 10 -30 10
-13 0 -13 -1 0 -10z"/>
<path d="M5374 1718 c-4 -6 -3 -8 3 -5 6 4 19 0 29 -8 22 -17 44 -19 44 -5 0
6 -9 10 -19 10 -11 0 -23 5 -26 10 -8 13 -22 13 -31 -2z"/>
<path d="M5420 1665 c0 -8 5 -15 10 -15 6 0 10 7 10 15 0 8 -4 15 -10 15 -5 0
-10 -7 -10 -15z"/>
<path d="M6830 6174 c0 -5 18 -29 40 -54 42 -47 51 -45 22 4 -18 30 -62 65
-62 50z"/>
<path d="M6930 6134 c0 -3 7 -30 16 -60 14 -50 34 -73 34 -39 0 9 9 15 25 15
21 0 25 -5 25 -28 0 -16 9 -37 20 -47 18 -17 20 -17 14 -2 -3 9 -2 17 4 17 11
0 10 79 -1 98 -12 18 -35 15 -40 -5 -3 -13 -5 -11 -6 6 0 13 -9 30 -18 37 -18
13 -73 19 -73 8z"/>
<path d="M6820 6122 c0 -10 22 -32 32 -32 15 0 8 15 -12 28 -11 7 -20 9 -20 4z"/>
<path d="M1755 6090 c-4 -6 -11 -8 -16 -5 -5 4 -9 0 -9 -8 0 -8 16 -24 36 -36
20 -12 40 -34 45 -51 6 -16 17 -30 25 -30 8 0 14 -7 14 -15 0 -35 72 -39 91
-4 9 17 7 18 -16 9 -39 -15 -55 -12 -55 9 0 25 -39 73 -56 67 -8 -3 -17 8 -24
29 -13 38 -25 51 -35 35z"/>
<path d="M1602 6021 c-10 -6 -5 -11 17 -21 36 -14 63 -7 55 15 -7 16 -50 20
-72 6z"/>
<path d="M2261 5920 c-12 -52 -11 -61 5 -88 30 -52 81 -51 91 0 3 16 12 32 20
35 20 8 -4 33 -31 33 -28 0 -46 18 -46 46 0 12 -6 24 -13 27 -9 3 -17 -13 -26
-53z"/>
<path d="M1867 5890 c3 -11 9 -17 14 -14 5 3 6 -1 3 -9 -2 -7 3 -24 13 -36
l19 -23 -4 41 c-3 27 -9 41 -18 41 -8 0 -14 5 -14 10 0 6 -4 10 -9 10 -5 0 -7
-9 -4 -20z"/>
<path d="M3808 5889 c9 -23 25 -27 30 -7 2 9 0 8 -7 -2 -9 -12 -11 -11 -11 8
0 12 -4 22 -10 22 -5 0 -6 -9 -2 -21z"/>
<path d="M3795 5840 c-3 -5 -1 -10 4 -10 6 0 11 5 11 10 0 6 -2 10 -4 10 -3 0
-8 -4 -11 -10z"/>
<path d="M2223 5791 c0 -15 5 -28 11 -28 6 0 21 -3 34 -7 17 -6 22 -4 22 12 0
15 -18 30 -61 49 -3 1 -6 -10 -6 -26z"/>
<path d="M2448 5777 c-36 -14 -35 -28 3 -66 29 -29 31 -30 48 -13 22 21 35 58
25 73 -4 8 -9 7 -15 -2 -7 -11 -9 -10 -9 4 0 19 -12 20 -52 4z"/>
<path d="M3500 5769 c-35 -14 -100 -60 -100 -71 0 -5 10 1 22 12 22 20 23 20
36 3 13 -17 14 -16 7 5 -5 18 -2 22 14 22 12 0 21 5 21 10 0 6 7 10 15 10 8 0
15 5 15 10 0 6 -1 10 -2 9 -2 0 -14 -5 -28 -10z"/>
<path d="M3330 5750 c-14 -10 -21 -22 -17 -26 4 -4 7 -2 7 4 0 7 6 12 14 12 8
0 17 6 19 13 4 9 8 8 16 -3 5 -8 13 -11 18 -7 4 5 1 12 -7 17 -20 13 -21 13
-50 -10z"/>
<path d="M2144 5716 c-10 -27 2 -43 14 -19 8 14 9 24 2 28 -6 3 -13 -1 -16 -9z"/>
<path d="M2170 5691 c0 -6 5 -13 10 -16 6 -4 7 -12 4 -18 -5 -9 -4 -9 5 -1 6
6 9 18 5 27 -7 18 -24 23 -24 8z"/>
<path d="M3349 5671 c-19 -16 -31 -32 -28 -35 4 -4 21 7 38 25 41 41 35 47
-10 10z"/>
<path d="M3570 5691 c0 -5 5 -13 10 -16 6 -3 10 -2 10 4 0 5 -4 13 -10 16 -5
3 -10 2 -10 -4z"/>
<path d="M3117 5654 c-21 -28 -16 -44 7 -25 15 12 28 51 18 51 -4 0 -15 -12
-25 -26z"/>
<path d="M3143 5623 c-7 -2 -13 -11 -13 -19 0 -9 -5 -12 -12 -8 -8 5 -9 2 -5
-10 6 -14 3 -17 -9 -12 -11 4 -18 -1 -21 -14 -3 -11 -10 -20 -15 -20 -6 0 -8
-6 -5 -14 6 -14 -20 -44 -32 -38 -3 2 -7 0 -8 -5 -6 -17 35 -11 52 7 9 10 24
16 33 14 22 -5 53 15 35 23 -25 10 -4 63 25 63 6 0 12 7 16 15 7 18 -5 20 -23
3 -11 -11 -13 -10 -8 5 4 9 5 17 4 16 -1 0 -8 -3 -14 -6z"/>
<path d="M3220 5600 c-9 -6 -10 -10 -3 -10 6 0 15 5 18 10 8 12 4 12 -15 0z"/>
<path d="M3185 5570 c-3 -5 -2 -10 4 -10 5 0 13 5 16 10 3 6 2 10 -4 10 -5 0
-13 -4 -16 -10z"/>
<path d="M6515 5560 c-3 -5 -2 -10 4 -10 5 0 13 5 16 10 3 6 2 10 -4 10 -5 0
-13 -4 -16 -10z"/>
<path d="M3085 5480 c-3 -5 1 -10 9 -10 9 0 16 5 16 10 0 6 -4 10 -9 10 -6 0
-13 -4 -16 -10z"/>
<path d="M2993 5453 c-13 -5 -19 -33 -7 -33 7 0 34 27 34 34 0 7 -10 7 -27 -1z"/>
<path d="M5330 5220 c0 -5 5 -10 11 -10 5 0 7 5 4 10 -3 6 -8 10 -11 10 -2 0
-4 -4 -4 -10z"/>
<path d="M3977 4583 c-4 -3 -7 -11 -7 -17 0 -6 5 -5 12 2 6 6 9 14 7 17 -3 3
-9 2 -12 -2z"/>
<path d="M3750 4560 c0 -5 5 -10 11 -10 6 0 7 -5 2 -12 -20 -32 10 -80 42 -67
19 7 19 8 -2 8 -24 1 -28 12 -24 64 2 19 -2 27 -13 27 -9 0 -16 -4 -16 -10z"/>
<path d="M3990 4536 c0 -7 -12 -26 -26 -41 -14 -15 -19 -25 -11 -22 25 10 28
-5 6 -29 l-21 -23 23 6 c13 4 29 14 36 22 16 21 17 44 1 35 -8 -5 -9 -2 -4 12
16 38 18 54 7 54 -6 0 -11 -6 -11 -14z"/>
<path d="M3720 4529 c0 -5 5 -7 10 -4 6 3 10 8 10 11 0 2 -4 4 -10 4 -5 0 -10
-5 -10 -11z"/>
<path d="M3860 4459 c0 -5 7 -9 16 -9 9 0 12 -5 8 -12 -4 -7 -3 -8 4 -4 18 11
14 23 -8 29 -11 3 -20 1 -20 -4z"/>
<path d="M4013 4435 c1 -11 8 -24 15 -28 21 -14 22 -4 2 23 -16 22 -18 22 -17
5z"/>
<path d="M5540 4045 c0 -5 5 -17 10 -25 5 -8 10 -10 10 -5 0 6 -5 17 -10 25
-5 8 -10 11 -10 5z"/>
<path d="M5565 3965 c7 -21 12 -45 14 -81 0 -13 10 -24 23 -27 29 -8 31 -5 15
26 -8 15 -17 23 -21 19 -5 -4 -6 2 -5 13 2 11 -5 31 -15 45 -14 19 -17 20 -11
5z"/>
<path d="M5620 3655 c0 -8 4 -15 10 -15 5 0 7 7 4 15 -4 8 -8 15 -10 15 -2 0
-4 -7 -4 -15z"/>
<path d="M2931 3518 c3 -28 -2 -47 -16 -62 -38 -37 -33 -85 13 -123 7 -6 15
-17 16 -25 1 -7 7 -23 14 -35 16 -29 15 -37 -2 -21 -8 7 -12 16 -9 21 2 4 -1
7 -7 7 -7 0 -10 -6 -7 -14 8 -20 -47 -56 -98 -63 -55 -7 -52 -12 12 -23 48 -8
47 -8 -27 -10 -41 -1 -68 -4 -59 -7 10 -2 19 -12 22 -23 6 -23 60 -52 82 -44
9 4 23 20 31 36 8 16 19 26 25 22 10 -6 3 -15 -48 -71 -6 -7 -13 -18 -15 -24
-4 -13 -48 9 -48 25 0 5 -14 22 -30 38 -26 24 -34 27 -51 17 -11 -6 -23 -8
-26 -5 -3 3 -15 -1 -27 -9 -11 -8 -29 -15 -39 -15 -10 0 -15 -4 -12 -10 3 -5
21 -10 39 -10 45 0 56 -33 17 -50 -24 -10 -71 -70 -71 -90 0 -4 8 -10 18 -14
9 -3 22 -9 29 -12 8 -3 10 2 6 17 -4 15 -3 20 5 15 15 -9 15 -39 0 -54 -7 -7
-10 -12 -8 -13 45 -6 61 -6 66 3 4 6 1 16 -7 22 -18 14 -22 66 -5 66 7 0 21 9
31 20 17 19 18 19 38 -6 15 -19 26 -24 43 -20 13 4 24 3 23 -1 -1 -5 -1 -33 1
-63 1 -41 4 -50 10 -35 l9 20 0 -20 c0 -12 -25 -41 -66 -75 -69 -58 -123 -111
-123 -121 0 -4 -18 -19 -40 -34 -22 -15 -37 -31 -34 -36 3 -5 -1 -9 -8 -9 -7
0 -32 -20 -56 -45 -24 -25 -47 -45 -52 -45 -5 0 -18 -13 -29 -28 l-20 -29 22
-23 c20 -22 20 -22 1 -7 -24 20 -50 22 -61 4 -18 -28 -137 -126 -146 -120 -6
3 -7 1 -3 -5 6 -11 -298 -322 -315 -322 -5 0 -9 -4 -9 -9 0 -4 -10 -19 -22
-33 -102 -112 -108 -122 -108 -170 0 -79 167 -248 245 -248 67 0 159 84 674
614 167 172 215 216 223 205 8 -11 9 -10 4 5 -5 13 12 39 61 93 246 273 353
396 353 404 0 5 -7 20 -15 33 -25 38 -56 126 -66 186 -15 90 -30 150 -39 150
-5 0 -40 -35 -79 -77 l-71 -77 0 36 c0 20 7 52 15 71 18 45 19 51 1 44 -10 -4
-12 2 -6 26 3 18 2 46 -3 62 -10 32 -27 56 -27 40 0 -6 -24 -9 -52 -9 -29 1
-52 6 -50 10 1 5 25 7 52 6 28 -2 50 0 50 5 0 6 -6 30 -14 55 -18 61 -72 128
-103 128 -13 0 -23 -6 -22 -12z m39 -118 c0 -15 -21 -23 -33 -11 -8 8 -7 11 2
11 11 0 11 3 0 17 -13 15 -12 15 9 4 12 -6 22 -16 22 -21z m110 -105 c0 -8 -2
-15 -4 -15 -2 0 -6 7 -10 15 -3 8 -1 15 4 15 6 0 10 -7 10 -15z m-110 -76 c0
-5 16 -9 35 -9 24 0 35 -5 35 -15 0 -11 -8 -13 -32 -8 -18 3 -39 11 -47 17
-12 9 -12 7 -1 -14 l13 -24 -26 17 c-24 16 -26 16 -20 0 4 -11 3 -14 -5 -9
-18 11 -14 44 5 54 18 11 43 5 43 -9z m-19 -92 l-24 -22 19 27 c10 14 21 24
23 22 3 -3 -6 -15 -18 -27z m158 -138 c-11 -8 -10 -13 9 -28 22 -19 30 -51 12
-51 -5 0 -7 7 -3 16 4 11 1 15 -13 12 -11 -2 -21 -12 -24 -23 -9 -31 -38 -31
-46 1 -8 30 7 61 27 56 8 -2 7 5 -4 21 -21 32 -12 40 26 21 23 -13 27 -18 16
-25z m-212 9 c-3 -8 -6 -5 -6 6 -1 11 2 17 5 13 3 -3 4 -12 1 -19z m-207 8 c0
-12 -13 -36 -20 -36 -4 0 -10 9 -13 20 -4 15 0 20 14 20 10 0 19 -2 19 -4z
m310 -80 c0 -6 -7 -2 -15 8 -8 11 -15 31 -15 45 1 24 2 24 15 -8 8 -18 15 -38
15 -45z m-88 -33 c1 -12 -1 -23 -7 -25 -5 -2 -11 13 -13 32 -4 38 14 32 20 -7z
m84 -30 c-10 -10 -19 5 -10 18 6 11 8 11 12 0 2 -7 1 -15 -2 -18z m-71 -153
c-10 -11 -23 -20 -29 -20 -6 0 0 9 14 20 32 25 38 25 15 0z m9 -25 c-4 -8 -11
-15 -16 -15 -6 0 -5 6 2 15 7 8 14 15 16 15 2 0 1 -7 -2 -15z m56 -16 c0 -6
-4 -7 -10 -4 -5 3 -10 11 -10 16 0 6 5 7 10 4 6 -3 10 -11 10 -16z m-260 1 c0
-5 -2 -10 -4 -10 -3 0 -8 5 -11 10 -3 6 -1 10 4 10 6 0 11 -4 11 -10z m224
-45 c4 -13 2 -14 -14 -5 -23 13 -26 20 -6 20 8 0 16 -7 20 -15z m-50 -50 c-4
-8 -8 -15 -10 -15 -2 0 -4 7 -4 15 0 8 4 15 10 15 5 0 7 -7 4 -15z m-294 1 c0
-2 -7 -7 -16 -10 -8 -3 -12 -2 -9 4 6 10 25 14 25 6z m-37 -36 c3 -11 1 -18
-4 -14 -5 3 -9 12 -9 20 0 20 7 17 13 -6z m310 -5 c-3 -9 -8 -14 -10 -11 -3 3
-2 9 2 15 9 16 15 13 8 -4z m16 -75 c11 -24 11 -24 -3 -6 -9 11 -16 24 -16 30
0 12 5 7 19 -24z m-601 -209 c-13 -16 -30 -32 -38 -36 -8 -3 1 10 19 29 42 44
51 46 19 7z m-138 -135 c0 -2 -7 -9 -15 -16 -13 -11 -14 -10 -9 4 5 14 24 23
24 12z"/>
<path d="M2843 3280 c-13 -5 -23 -12 -23 -15 0 -4 5 -3 10 0 6 3 10 -2 10 -11
0 -16 1 -16 20 1 34 31 26 42 -17 25z"/>
<path d="M4950 2949 c0 -5 5 -7 10 -4 6 3 10 8 10 11 0 2 -4 4 -10 4 -5 0 -10
-5 -10 -11z"/>
<path d="M5840 2790 c11 -20 30 -28 30 -12 0 11 -22 32 -32 32 -5 0 -4 -9 2
-20z"/>
<path d="M3640 2639 c0 -5 5 -7 10 -4 6 3 10 8 10 11 0 2 -4 4 -10 4 -5 0 -10
-5 -10 -11z"/>
<path d="M5995 2566 c10 -14 19 -26 22 -26 7 0 -17 39 -28 46 -6 3 -3 -5 6
-20z"/>
<path d="M3691 2486 c-10 -11 -6 -19 16 -40 30 -28 44 -33 41 -13 -2 6 3 11
10 10 6 -2 11 2 10 9 -4 18 -22 37 -31 31 -4 -3 -14 0 -21 6 -10 8 -16 8 -25
-3z"/>
<path d="M4087 2465 c3 -8 9 -12 14 -9 12 7 11 11 -5 17 -10 4 -13 1 -9 -8z"/>
<path d="M4015 2333 c-21 -11 -26 -18 -15 -21 7 -3 16 0 18 7 2 6 10 11 18 11
8 0 14 5 14 10 0 12 1 13 -35 -7z"/>
<path d="M4085 2334 c-16 -8 -22 -12 -12 -9 10 3 32 5 48 5 16 0 29 5 29 10 0
14 -30 12 -65 -6z"/>
<path d="M4215 2340 l-20 -9 20 0 c11 0 27 4 35 9 13 9 13 10 0 9 -8 0 -24 -4
-35 -9z"/>
<path d="M6093 1458 c-12 -21 -12 -38 0 -38 7 0 13 11 13 25 2 28 -1 31 -13
13z"/>
<path d="M5470 967 c0 -13 6 -29 13 -36 6 -8 8 -12 2 -9 -5 3 -19 2 -30 -3
-19 -7 -19 -8 3 -8 15 -1 21 -5 16 -13 -4 -7 -3 -8 4 -4 8 5 12 -1 13 -16 0
-22 1 -22 9 -3 12 28 12 37 0 30 -7 -4 -9 2 -4 18 7 29 -3 67 -17 67 -5 0 -9
-10 -9 -23z"/>
<path d="M4991 554 c0 -11 3 -14 6 -6 3 7 2 16 -1 19 -3 4 -6 -2 -5 -13z"/>
<path d="M5001 519 c-1 -8 6 -24 15 -35 15 -19 15 -19 6 1 -5 11 -12 27 -15
35 -5 13 -6 13 -6 -1z"/>
<path d="M5795 382 c-31 -7 -45 -22 -45 -51 0 -15 6 -33 13 -40 10 -11 9 -12
-3 -6 -10 5 -12 5 -5 -2 6 -6 24 -14 40 -17 25 -5 35 -2 53 18 12 14 17 28 12
31 -6 4 -10 1 -10 -4 0 -6 -7 -11 -15 -11 -10 0 -15 10 -15 30 0 28 -2 30 -22
20 -21 -10 -21 -9 2 9 27 22 26 30 -5 23z"/>
</g>
</svg>
