<svg xmlns="http://www.w3.org/2000/svg" viewBox="0 0 100 100">
  <rect width="100" height="100" fill="#222"/>
  <circle cx="20" cy="20" r="5" fill="#2196f3"/>
  <circle cx="20" cy="50" r="5" fill="#2196f3"/>
  <circle cx="20" cy="80" r="5" fill="#2196f3"/>
  <circle cx="50" cy="30" r="5" fill="#2196f3"/>
  <circle cx="50" cy="60" r="5" fill="#2196f3"/>
  <circle cx="80" cy="50" r="5" fill="#2196f3"/>
  <path d="M20,20 Q35,25 50,30" stroke="#fff" stroke-width="1"/>
  <path d="M20,20 Q35,35 50,60" stroke="#fff" stroke-width="1"/>
  <path d="M20,50 Q35,45 50,30" stroke="#fff" stroke-width="1"/>
  <path d="M20,50 Q35,55 50,60" stroke="#fff" stroke-width="1"/>
  <path d="M20,80 Q35,65 50,60" stroke="#fff" stroke-width="1"/>
  <path d="M20,80 Q35,75 50,30" stroke="#fff" stroke-width="1"/>
  <path d="M50,30 L65,40 L80,50 L65,60 L50,60" stroke="#fff" stroke-width="1" fill="none"/>
</svg>